<?xml version="1.0" encoding="UTF-8"?>
<svg version="1.1" xmlns="http://www.w3.org/2000/svg" width="600" height="600">
<path d="M0 0 C28.66740986 27.16063225 48.96888269 65.28617224 50.80200195 105.30126953 C50.82804059 106.64085319 50.84824926 107.98056012 50.86328125 109.3203125 C50.87810799 110.41250595 50.87810799 110.41250595 50.89323425 111.52676392 C51.06889226 127.83575886 50.99144648 143.59623264 46.625 159.4375 C46.23030518 160.87343506 46.23030518 160.87343506 45.82763672 162.33837891 C39.99202806 182.797686 30.94173937 201.78541748 17.625 218.4375 C17.15980957 219.02080078 16.69461914 219.60410156 16.21533203 220.20507812 C5.26540752 233.77083826 -7.09285399 244.55650494 -21.57763672 254.234375 C-23.11430916 255.2629979 -24.6246079 256.33083671 -26.12890625 257.40625 C-28.375 258.4375 -28.375 258.4375 -30.49609375 258.05078125 C-33.20879245 255.72158258 -34.22406083 252.89551522 -35.4375 249.625 C-35.69354004 248.95210938 -35.94958008 248.27921875 -36.21337891 247.5859375 C-41.76235514 232.58144925 -44.09636322 216.80282774 -38.375 201.4375 C-33.78403101 191.59340302 -26.17570374 184.12200657 -18.4375 176.6875 C1.69411649 156.64966434 8.93874066 131.85877749 9.01000977 103.95605469 C8.76397843 82.47020493 2.36820349 60.91888092 -10.375 43.4375 C-10.76671387 42.89528809 -11.15842773 42.35307617 -11.56201172 41.79443359 C-29.28736978 17.49911095 -54.84680402 1.19783943 -84.67626953 -3.96044922 C-113.57814288 -8.34212808 -144.03420038 -2.86629831 -168.13671875 14.41796875 C-170.60193466 16.36975531 -172.99340109 18.38496484 -175.375 20.4375 C-176.04917969 20.96730469 -176.72335938 21.49710938 -177.41796875 22.04296875 C-194.16476669 35.58079942 -205.07800348 57.85709214 -207.75 78.9375 C-209.02473833 90.96928843 -207.50641799 102.20808239 -205.0234375 113.99609375 C-202.62413732 126.72972904 -207.15687051 134.88944349 -213.8125 145.5 C-214.50956055 146.62631836 -214.50956055 146.62631836 -215.22070312 147.77539062 C-218.95871159 153.8072955 -218.95871159 153.8072955 -220.80126953 156.59667969 C-224.26568743 161.89725152 -225.73012287 166.01300445 -225.375 172.4375 C-224.1860665 176.28404956 -223.23457309 177.84241094 -219.9375 180.125 C-215.7198291 181.67887875 -211.48583206 182.61533359 -207.08203125 183.49609375 C-203.86929646 184.61336516 -202.86218311 185.38956287 -201.375 188.4375 C-201.40625 191.20703125 -201.40625 191.20703125 -201.875 194.25 C-202.49345617 199.8432904 -202.18640906 202.59024301 -199.375 207.4375 C-198.67375 208.283125 -197.9725 209.12875 -197.25 210 C-195.16588016 213.82088638 -195.0673787 216.01146192 -194.875 220.3125 C-194.4618751 228.67168683 -192.77669958 233.42580717 -186.6875 239.1875 C-176.97838981 247.1066625 -166.67421634 247.62158372 -154.63085938 247.8671875 C-149.75490318 248.04276582 -146.33771737 248.28445376 -142.375 251.4375 C-138.04484039 256.23160528 -138.23606298 260.96670263 -138.3125 267.1875 C-138.31701172 267.88488281 -138.32152344 268.58226562 -138.32617188 269.30078125 C-138.3378998 271.01305803 -138.35583347 272.72529033 -138.375 274.4375 C-144.1051971 273.87155461 -149.23980182 272.78417735 -154.6875 270.9375 C-155.84439331 270.54546387 -155.84439331 270.54546387 -157.0246582 270.14550781 C-196.95664289 256.14615544 -228.77687214 226.73163962 -247.60400391 188.97265625 C-252.82888214 177.87063345 -256.66587121 166.39494343 -259.375 154.4375 C-259.62056641 153.38103271 -259.62056641 153.38103271 -259.87109375 152.30322266 C-268.91747702 111.58515252 -259.89379205 66.86467596 -237.69140625 31.8984375 C-231.43931561 22.39355194 -224.17358133 13.70956662 -216.375 5.4375 C-215.715 4.71304688 -215.055 3.98859375 -214.375 3.2421875 C-157.37875119 -56.99248453 -59.33891185 -53.71450667 0 0 Z M-104.375 -28.5625 C-104.705 -27.5725 -105.035 -26.5825 -105.375 -25.5625 C-105.045 -24.9025 -104.715 -24.2425 -104.375 -23.5625 C-103.055 -23.8925 -101.735 -24.2225 -100.375 -24.5625 C-100.705 -25.8825 -101.035 -27.2025 -101.375 -28.5625 C-102.365 -28.5625 -103.355 -28.5625 -104.375 -28.5625 Z M-73.375 -22.5625 C-73.62530977 -19.97869823 -73.62530977 -19.97869823 -73.375 -17.5625 C-71.04645537 -16.36411791 -71.04645537 -16.36411791 -68.375 -15.5625 C-67.385 -16.2225 -66.395 -16.8825 -65.375 -17.5625 C-65.705 -19.5425 -66.035 -21.5225 -66.375 -23.5625 C-69.86081856 -24.7645064 -70.05492344 -24.77588437 -73.375 -22.5625 Z M-143.375 -23.5625 C-144.035 -22.9025 -144.695 -22.2425 -145.375 -21.5625 C-145.05458603 -18.95969432 -145.05458603 -18.95969432 -144.375 -16.5625 C-142.48320797 -15.8810177 -142.48320797 -15.8810177 -140.375 -15.5625 C-139.715 -16.2225 -139.055 -16.8825 -138.375 -17.5625 C-138.69541397 -20.16530568 -138.69541397 -20.16530568 -139.375 -22.5625 C-141.26679203 -23.2439823 -141.26679203 -23.2439823 -143.375 -23.5625 Z M-191.3125 0.6875 C-192.62003602 3.31617962 -192.62003602 3.31617962 -191.875 5.6875 C-190.45565519 7.63542969 -190.45565519 7.63542969 -187.9375 8.3125 C-185.13056583 8.70396351 -185.13056583 8.70396351 -182.375 6.4375 C-181.95833333 3.4375 -181.95833333 3.4375 -182.375 0.4375 C-184.20286272 -1.77107238 -184.20286272 -1.77107238 -186.8125 -2 C-189.58010095 -1.80752782 -189.58010095 -1.80752782 -191.3125 0.6875 Z M-28.375 4.4375 C-28.045 5.7575 -27.715 7.0775 -27.375 8.4375 C-26.385 8.1075 -25.395 7.7775 -24.375 7.4375 C-24.375 6.4475 -24.375 5.4575 -24.375 4.4375 C-25.695 4.4375 -27.015 4.4375 -28.375 4.4375 Z M-0.375 23.4375 C-0.375 24.7575 -0.375 26.0775 -0.375 27.4375 C0.945 27.1075 2.265 26.7775 3.625 26.4375 C3.295 25.4475 2.965 24.4575 2.625 23.4375 C1.635 23.4375 0.645 23.4375 -0.375 23.4375 Z M-211.375 32.4375 C-212.365 33.9225 -212.365 33.9225 -213.375 35.4375 C-211.89 36.4275 -211.89 36.4275 -210.375 37.4375 C-209.715 36.4475 -209.055 35.4575 -208.375 34.4375 C-209.365 33.7775 -210.355 33.1175 -211.375 32.4375 Z M12.625 47.4375 C11.965 48.0975 11.305 48.7575 10.625 49.4375 C10.94541397 52.04030568 10.94541397 52.04030568 11.625 54.4375 C13.275 54.4375 14.925 54.4375 16.625 54.4375 C17.30458603 52.04030568 17.30458603 52.04030568 17.625 49.4375 C16.965 48.7775 16.305 48.1175 15.625 47.4375 C14.635 47.4375 13.645 47.4375 12.625 47.4375 Z M-229.1875 51.625 C-230.63603335 53.43551207 -230.63603335 53.43551207 -230.1875 56 C-229.52872967 58.58191272 -229.52872967 58.58191272 -227.375 60.4375 C-224.07785207 60.10778521 -222.7523161 59.8148161 -220.375 57.4375 C-220.70471479 54.14035207 -220.9976839 52.8148161 -223.375 50.4375 C-227.17850374 50.07214916 -227.17850374 50.07214916 -229.1875 51.625 Z M24.625 81.4375 C24.295 82.7575 23.965 84.0775 23.625 85.4375 C25.605 86.4275 25.605 86.4275 27.625 87.4375 C28.285 86.1175 28.945 84.7975 29.625 83.4375 C28.965 82.7775 28.305 82.1175 27.625 81.4375 C26.635 81.4375 25.645 81.4375 24.625 81.4375 Z M-235.375 87.4375 C-235.045 89.0875 -234.715 90.7375 -234.375 92.4375 C-233.385 91.7775 -232.395 91.1175 -231.375 90.4375 C-231.705 89.4475 -232.035 88.4575 -232.375 87.4375 C-233.365 87.4375 -234.355 87.4375 -235.375 87.4375 Z M-238.1875 115.5625 C-239.92698782 118.30905972 -239.77269128 120.25596974 -239.375 123.4375 C-238.31154948 125.41779682 -238.31154948 125.41779682 -236.375 126.4375 C-233.52019831 126.86572025 -232.03007108 126.84409584 -229.5625 125.3125 C-227.82301218 122.56594028 -227.97730872 120.61903026 -228.375 117.4375 C-229.43845052 115.45720318 -229.43845052 115.45720318 -231.375 114.4375 C-234.22980169 114.00927975 -235.71992892 114.03090416 -238.1875 115.5625 Z M23.625 117.4375 C22.33457237 119.70351865 22.33457237 119.70351865 21.625 122.4375 C22.88852052 124.76261472 22.88852052 124.76261472 24.625 126.4375 C27.07724694 126.33136164 27.07724694 126.33136164 29.625 125.4375 C31.19723394 123.13214365 31.19723394 123.13214365 31.625 120.4375 C30.965 119.4475 30.305 118.4575 29.625 117.4375 C26.54134129 117.1872843 26.54134129 117.1872843 23.625 117.4375 Z M23.625 150.4375 C23.295 151.4275 22.965 152.4175 22.625 153.4375 C24.605 154.4275 24.605 154.4275 26.625 155.4375 C26.955 154.1175 27.285 152.7975 27.625 151.4375 C26.305 151.1075 24.985 150.7775 23.625 150.4375 Z M-238.375 152.4375 C-239.035 153.7575 -239.695 155.0775 -240.375 156.4375 C-239.055 156.7675 -237.735 157.0975 -236.375 157.4375 C-236.375 156.1175 -236.375 154.7975 -236.375 153.4375 C-237.035 153.1075 -237.695 152.7775 -238.375 152.4375 Z M8.625 176.4375 C8.295 177.7575 7.965 179.0775 7.625 180.4375 C8.945 180.4375 10.265 180.4375 11.625 180.4375 C11.625 179.4475 11.625 178.4575 11.625 177.4375 C10.635 177.1075 9.645 176.7775 8.625 176.4375 Z M-223.375 194.4375 C-224.035 195.0975 -224.695 195.7575 -225.375 196.4375 C-225.05458603 199.04030568 -225.05458603 199.04030568 -224.375 201.4375 C-222.725 201.1075 -221.075 200.7775 -219.375 200.4375 C-219.045 199.4475 -218.715 198.4575 -218.375 197.4375 C-219.74985532 195.89583358 -219.74985532 195.89583358 -221.375 194.4375 C-222.035 194.4375 -222.695 194.4375 -223.375 194.4375 Z M-5.5 197.5625 C-7.66077545 199.36000157 -7.66077545 199.36000157 -7.875 202.4375 C-7.63018311 205.48028274 -7.63018311 205.48028274 -5.6875 207.4375 C-3.35262257 208.73494738 -3.35262257 208.73494738 -0.6875 207.6875 C1.52255147 206.6352169 1.52255147 206.6352169 2.625 205.4375 C3.04202122 202.5217309 3.04202122 202.5217309 2.625 199.4375 C-0.20172086 196.61077914 -1.84590943 195.62798146 -5.5 197.5625 Z M-21.375 222.4375 C-21.705 224.0875 -22.035 225.7375 -22.375 227.4375 C-19.9 227.9325 -19.9 227.9325 -17.375 228.4375 C-17.045 226.7875 -16.715 225.1375 -16.375 223.4375 C-18.025 223.1075 -19.675 222.7775 -21.375 222.4375 Z " fill="#11313F" transform="translate(403.375,177.5625)"/>
<path d="M0 0 C0.99 0.845625 1.98 1.69125 3 2.5625 C3.64582031 3.11035156 4.29164063 3.65820312 4.95703125 4.22265625 C6.27269455 5.36725816 7.56443529 6.54026247 8.82421875 7.74609375 C15.7416771 14.25749585 23.57858604 18.45950645 32.9375 20.1875 C36.34369331 21.0061559 37.59481578 21.38763091 39.55078125 24.34375 C40.35783675 26.25754935 41.11909942 28.19123799 41.8359375 30.140625 C44.74589752 37.28858049 50.20356415 41.73248277 57 45 C65.21838796 47.73946265 75.90304717 46.71925721 83.88671875 43.65625 C86.34121095 42.8940417 88.44471952 42.89259767 91 43 C91.14695312 43.75023437 91.29390625 44.50046875 91.4453125 45.2734375 C93.91848038 56.55904266 98.36890068 65.29415465 108 72 C119.77756888 79.15406446 130.61937008 79.27652278 144 79 C143.80664062 79.67804688 143.61328125 80.35609375 143.4140625 81.0546875 C136.94834407 104.16482962 139.00695072 123.03090747 148 145 C148.66704621 146.6665148 149.33388288 148.33311362 150 150 C126.38465494 163.28363159 94.45733553 166.27682596 68 163 C66.29472637 161.29472637 66.8005479 159.11437624 66.71020508 156.83203125 C66.26600578 145.65195496 65.59379983 134.12434782 57 126 C50.87911099 122.24333699 45.05877461 121.41843861 38 121.375 C20.8104817 121.11054587 20.8104817 121.11054587 14.5625 116.1875 C13.92441406 115.70667969 13.28632813 115.22585938 12.62890625 114.73046875 C8.07212529 109.88957196 8.65277569 103.73873734 8.44140625 97.47265625 C7.81000017 92.50522254 5.74314406 89.1147161 3 85 C2.74462891 83.10229492 2.74462891 83.10229492 2.7265625 80.98046875 C2.7059375 80.20509766 2.6853125 79.42972656 2.6640625 78.63085938 C2.63820984 77.01377578 2.61986815 75.39655307 2.609375 73.77929688 C2.44956957 68.412498 1.65324235 65.19934559 -2 61 C-5.68775541 58.19234756 -9.31320068 57.26689683 -13.8125 56.3125 C-15.55466797 55.93544922 -15.55466797 55.93544922 -17.33203125 55.55078125 C-18.21246094 55.36902344 -19.09289062 55.18726563 -20 55 C-19.53576977 49.92341783 -18.0671846 47.3030102 -14.875 43.375 C-3.90723661 29.26361016 0.64227757 17.84104373 0 0 Z " fill="#023C6B" transform="translate(211,292)"/>
<path d="M0 0 C22.01553611 9.65254033 38.82385598 29.00501787 47.984375 50.98828125 C48.25838135 51.64376953 48.5323877 52.29925781 48.81469727 52.97460938 C53.01630733 63.60182788 54.62676896 73.82258761 54.55541992 85.22631836 C54.54689565 87.29576918 54.57581448 89.36245905 54.60742188 91.43164062 C54.67889305 104.94210487 51.62512578 117.81342225 42.51953125 128.171875 C34.9752429 135.29013295 25.93390323 137.34502833 15.74584961 137.06689453 C11.41612275 136.62841091 8.25143635 135.15486989 4.44223022 133.12835693 C-6.89085309 127.12445495 -16.83419926 126.12251966 -29.50341797 126.51953125 C-32.54896336 126.61431885 -35.58983251 126.64262582 -38.63671875 126.66015625 C-40.60943118 126.68763197 -42.58209703 126.71874834 -44.5546875 126.75390625 C-45.89244736 126.7730307 -45.89244736 126.7730307 -47.25723267 126.7925415 C-52.7382631 126.97717139 -57.42344451 127.91685623 -62.60263062 129.73455811 C-67.95886567 131.20641003 -72.47619701 130.12288147 -77.265625 127.55078125 C-80.68355314 124.7025078 -82.4844826 122.58170846 -83.890625 118.36328125 C-84.25888724 112.74728209 -84.10618507 109.18662136 -80.890625 104.36328125 C-75.3542128 99.06758262 -71.11961357 97.0957079 -63.49609375 97.16796875 C-62.29404297 97.17441406 -61.09199219 97.18085938 -59.85351562 97.1875 C-57.98469727 97.21263672 -57.98469727 97.21263672 -56.078125 97.23828125 C-54.81291016 97.24730469 -53.54769531 97.25632812 -52.24414062 97.265625 C-49.12610936 97.28915731 -46.00846403 97.3220358 -42.890625 97.36328125 C-42.89642578 96.0484375 -42.90222656 94.73359375 -42.90820312 93.37890625 C-42.96044706 75.49219025 -42.70423508 57.61344218 -42.42706299 39.72955322 C-42.36541224 35.72597206 -42.30585541 31.72235973 -42.24609375 27.71875 C-42.12959038 19.93356279 -42.01086614 12.14841173 -41.890625 4.36328125 C-41.230625 4.69328125 -40.570625 5.02328125 -39.890625 5.36328125 C-39.024375 4.83734375 -39.024375 4.83734375 -38.140625 4.30078125 C-34.87686414 2.94088089 -33.14650613 4.15030593 -29.890625 5.36328125 C-27.56367536 5.73859571 -25.23085815 6.08245327 -22.890625 6.36328125 C-23.1175 7.41515625 -23.344375 8.46703125 -23.578125 9.55078125 C-23.92657339 13.8018516 -23.50489741 15.09544073 -20.890625 18.36328125 C-18.00549522 20.7085106 -18.00549522 20.7085106 -14.390625 20.23828125 C-10.92860452 19.65433463 -10.92860452 19.65433463 -8.953125 17.67578125 C-7.5791687 14.68540577 -7.55086105 12.62501515 -7.890625 9.36328125 C-8.52036492 8.01211514 -9.18135237 6.67444659 -9.890625 5.36328125 C-8.873315 4.29781457 -7.82548249 3.26143372 -6.765625 2.23828125 C-6.18554688 1.65820312 -5.60546875 1.078125 -5.0078125 0.48046875 C-2.890625 -0.63671875 -2.890625 -0.63671875 0 0 Z M-1.203125 17.98828125 C-3.20206532 20.30245879 -3.20206532 20.30245879 -2.828125 23.48828125 C-2.12367813 26.65503057 -2.12367813 26.65503057 1.109375 28.36328125 C5.61787682 28.01882527 5.61787682 28.01882527 9.109375 25.36328125 C9.02193809 21.83433177 9.02193809 21.83433177 8.109375 18.36328125 C4.46447293 15.93334654 2.49360311 15.39058042 -1.203125 17.98828125 Z M-31.890625 20.36328125 C-31.890625 21.02328125 -31.890625 21.68328125 -31.890625 22.36328125 C-29.580625 22.36328125 -27.270625 22.36328125 -24.890625 22.36328125 C-24.230625 20.71328125 -23.570625 19.06328125 -22.890625 17.36328125 C-26.19418046 17.36328125 -28.91170749 19.03931791 -31.890625 20.36328125 Z M16.671875 33.92578125 C14.47915613 37.34642268 14.47929807 39.37279404 15.109375 43.36328125 C17.00587051 46.50986791 17.00587051 46.50986791 20.109375 48.36328125 C23.62892919 48.36328125 25.95857559 47.9943648 29.046875 46.30078125 C30.80304401 43.0983554 30.72964092 39.86637399 30.109375 36.36328125 C28.71252494 33.71629405 28.71252494 33.71629405 26.109375 32.36328125 C22.16921487 31.80040123 20.05155304 31.75932097 16.671875 33.92578125 Z M-17.890625 57.36328125 C-19.11702335 60.9658264 -19.21657014 62.60846093 -17.703125 66.11328125 C-15.78033929 68.50018765 -14.82421996 69.52511126 -11.890625 70.36328125 C-8.03009745 70.28285359 -6.38135279 69.79109522 -3.453125 67.23828125 C-1.61662408 64.38679377 -1.61662408 64.38679377 -1.828125 60.80078125 C-3.09148195 56.71344993 -4.19795733 55.46138788 -7.890625 53.36328125 C-12.45324428 52.45075739 -14.77021818 54.0695185 -17.890625 57.36328125 Z M23.859375 79.48828125 C20.89158032 82.08322138 20.89158032 82.08322138 20.484375 85.36328125 C21.27073604 89.13781426 22.19512855 90.82265614 25.109375 93.36328125 C29.07507488 94.00062587 31.14218012 93.98327797 34.546875 91.80078125 C36.73959387 88.38013982 36.73945193 86.35376846 36.109375 82.36328125 C34.00435629 79.34097423 34.00435629 79.34097423 31.109375 77.36328125 C27.02017872 76.99844834 27.02017872 76.99844834 23.859375 79.48828125 Z M-19.890625 103.36328125 C-20.97087158 105.76438342 -20.97087158 105.76438342 -20.890625 108.36328125 C-19.26906871 111.84962726 -18.12609208 113.20630319 -14.890625 115.36328125 C-9.99305111 115.18994997 -9.99305111 115.18994997 -5.953125 112.67578125 C-4.5292855 109.57683645 -4.33908673 107.74145313 -4.890625 104.36328125 C-7.37664949 100.99983636 -8.80488023 99.56270376 -12.953125 98.80078125 C-16.57499546 99.49433091 -17.72987705 100.40225628 -19.890625 103.36328125 Z " fill="#C8257C" transform="translate(345.890625,196.63671875)"/>
<path d="M0 0 C0.99 0.845625 1.98 1.69125 3 2.5625 C3.64582031 3.11035156 4.29164063 3.65820312 4.95703125 4.22265625 C6.27269455 5.36725816 7.56443529 6.54026247 8.82421875 7.74609375 C15.7416771 14.25749585 23.57858604 18.45950645 32.9375 20.1875 C36.34369331 21.0061559 37.59481578 21.38763091 39.55078125 24.34375 C40.35783675 26.25754935 41.11909942 28.19123799 41.8359375 30.140625 C44.74589752 37.28858049 50.20356415 41.73248277 57 45 C60.60782443 46.20260814 63.93076188 46.19050093 67.6875 46.1875 C68.40703857 46.18886963 69.12657715 46.19023926 69.86791992 46.19165039 C74.93853355 46.145131 79.17263817 45.4198123 84 44 C85.485 44.495 85.485 44.495 87 45 C86.022698 53.0138764 83.00644474 58.60424089 77.8125 64.5625 C77.32128662 65.1304126 76.83007324 65.6983252 76.32397461 66.28344727 C67.46338071 76.31253469 55.87447179 82.45736011 43 86 C41.90945312 86.34933594 40.81890625 86.69867188 39.6953125 87.05859375 C33.78747125 88.51631923 27.73990707 88.33521167 21.68896484 88.31567383 C19.60853476 88.31247468 17.52947768 88.33617355 15.44921875 88.36132812 C14.13824219 88.36197266 12.82726562 88.36261719 11.4765625 88.36328125 C10.28111816 88.36626221 9.08567383 88.36924316 7.85400391 88.37231445 C6.91218262 88.24945068 5.97036133 88.12658691 5 88 C2.98323478 84.97485217 2.75543842 84.37182901 2.7265625 80.98046875 C2.7059375 80.20509766 2.6853125 79.42972656 2.6640625 78.63085938 C2.63820984 77.01377578 2.61986815 75.39655307 2.609375 73.77929688 C2.44956957 68.412498 1.65324235 65.19934559 -2 61 C-5.68775541 58.19234756 -9.31320068 57.26689683 -13.8125 56.3125 C-15.55466797 55.93544922 -15.55466797 55.93544922 -17.33203125 55.55078125 C-18.21246094 55.36902344 -19.09289062 55.18726563 -20 55 C-19.53576977 49.92341783 -18.0671846 47.3030102 -14.875 43.375 C-3.90723661 29.26361016 0.64227757 17.84104373 0 0 Z " fill="#029BB1" transform="translate(211,292)"/>
<path d="M0 0 C-0.19335938 0.67804688 -0.38671875 1.35609375 -0.5859375 2.0546875 C-7.05165593 25.16482962 -4.99304928 44.03090747 4 66 C4.66704621 67.6665148 5.33388288 69.33311362 6 71 C-17.61534506 84.28363159 -49.54266447 87.27682596 -76 84 C-77.70527363 82.29472637 -77.1994521 80.11437624 -77.28979492 77.83203125 C-77.69406566 67.65691915 -78.24516293 56.89107368 -84.97265625 48.69140625 C-89.04032317 45.29776506 -94.03188845 43.67211521 -99 42 C-99 41.67 -99 41.34 -99 41 C-97.91847656 40.98582031 -96.83695312 40.97164063 -95.72265625 40.95703125 C-70.77271354 40.30865831 -40.68970978 35.73396848 -22.23046875 17.22265625 C-20 15 -20 15 -18 15 C-17.62875 14.1646875 -17.62875 14.1646875 -17.25 13.3125 C-15.08711378 9.31116049 -12.203991 6.203991 -9 3 C-12.63 2.67 -16.26 2.34 -20 2 C-20 1.67 -20 1.34 -20 1 C-17.22922802 0.83225597 -14.45839073 0.66576064 -11.6875 0.5 C-10.90181641 0.45230469 -10.11613281 0.40460938 -9.30664062 0.35546875 C-8.54931641 0.31035156 -7.79199219 0.26523437 -7.01171875 0.21875 C-6.31522217 0.17685547 -5.61872559 0.13496094 -4.90112305 0.09179688 C-3.26903034 0.01299029 -1.63399421 0 0 0 Z " fill="#092633" transform="translate(355,371)"/>
<path d="M0 0 C0.33 0 0.66 0 1 0 C1 24.75 1 49.5 1 75 C-6.26 75.33 -13.52 75.66 -21 76 C-29.53874997 79.1257924 -34.44178246 82.19236006 -39 90 C-39.54527344 90.90621094 -40.09054688 91.81242187 -40.65234375 92.74609375 C-41.31943359 93.86177734 -41.31943359 93.86177734 -42 95 C-56.17103509 91.07983394 -67.95763817 83.47142504 -75.375 70.5 C-79.34707405 63.13280121 -80.33313332 56.09134339 -80.25 47.875 C-80.25773438 47.10285156 -80.26546875 46.33070313 -80.2734375 45.53515625 C-80.25787587 40.96781911 -79.73029176 37.29826445 -78 33 C-77.34 34.32 -76.68 35.64 -76 37 C-75.32453125 36.97679687 -74.6490625 36.95359375 -73.953125 36.9296875 C-72.61507812 36.90261719 -72.61507812 36.90261719 -71.25 36.875 C-69.92742187 36.84019531 -69.92742187 36.84019531 -68.578125 36.8046875 C-65.861122 37.01052106 -64.37724222 37.75094053 -62 39 C-59.31006947 38.69621948 -59.31006947 38.69621948 -57 38 C-56.34 35.69 -55.68 33.38 -55 31 C-52.10765685 30.17361624 -50.11257569 30 -47 30 C-47 29.34 -47 28.68 -47 28 C-45.0424015 27.49713066 -43.08389623 26.9977901 -41.125 26.5 C-40.03445312 26.2215625 -38.94390625 25.943125 -37.8203125 25.65625 C-35 25 -35 25 -33 25 C-32.505 23.515 -32.505 23.515 -32 22 C-30.35 22.33 -28.7 22.66 -27 23 C-27 23.66 -27 24.32 -27 25 C-20.07 26.485 -20.07 26.485 -13 28 C-13.7734375 26.14375 -13.7734375 26.14375 -14.5625 24.25 C-15.89554742 21.0506862 -16.12377697 19.30435084 -15 16 C-13.02 16 -11.04 16 -9 16 C-9.56739868 11.87026372 -9.56739868 11.87026372 -11 8 C-9.625 6.5 -9.625 6.5 -8 5 C-7.34 5 -6.68 5 -6 5 C-6 4.34 -6 3.68 -6 3 C-4.02 3 -2.04 3 0 3 C0 2.01 0 1.02 0 0 Z M-47.5 36.25 C-48.2425 37.11625 -48.2425 37.11625 -49 38 C-48.67 38.99 -48.34 39.98 -48 41 C-46.03247398 40.12454117 -44.07617724 39.22381454 -42.125 38.3125 C-41.03445312 37.81363281 -39.94390625 37.31476563 -38.8203125 36.80078125 C-35.65866822 34.78205824 -34.95790837 33.55881147 -34 30 C-39.26193219 30 -43.65459334 32.789134 -47.5 36.25 Z M-38 47 C-38.55348638 50.87440468 -38.29968563 53.78044012 -36 57 C-33.36491618 59.04950964 -31.8864488 58.9979723 -28.5 58.9375 C-24.93190415 58.24962319 -24.93190415 58.24962319 -22.5 55.875 C-20.49313933 52.02851705 -20.72823476 50.11453459 -22 46 C-24.58803981 43.11618421 -26.19529549 42.1508821 -30 41.4375 C-34.10389613 42.20698052 -35.53959272 43.67121368 -38 47 Z M-57 61 C-57 61.66 -57 62.32 -57 63 C-54.64828869 62.40138258 -52.3140622 61.73075648 -50 61 C-49.67 60.34 -49.34 59.68 -49 59 C-52.71599191 58.79913557 -53.77208445 58.8480563 -57 61 Z " fill="#EE3B7C" transform="translate(292,207)"/>
<path d="M0 0 C0.99 0.845625 1.98 1.69125 3 2.5625 C3.64582031 3.11035156 4.29164063 3.65820312 4.95703125 4.22265625 C6.27269455 5.36725816 7.56443529 6.54026247 8.82421875 7.74609375 C15.74117564 14.25702382 23.55953359 18.48196006 32.9375 20.125 C36.71288847 20.99246643 37.69184673 21.51164406 39.796875 24.84765625 C41.05589647 27.87142972 42.11547899 30.84797762 43 34 C42.07960938 34.10828125 42.07960938 34.10828125 41.140625 34.21875 C38.83680259 34.80777181 38.83680259 34.80777181 37.796875 36.96875 C37.45140625 37.8040625 37.1059375 38.639375 36.75 39.5 C30.69905764 52.23786966 21.42721629 57.46343785 8.60546875 62.2734375 C2.7396036 64.08165734 2.7396036 64.08165734 0 64 C-1.68196259 62.34877094 -3.34679822 60.68002364 -5 59 C-7.53172998 57.88663022 -10.11774305 57.28318312 -12.8125 56.6875 C-13.50537109 56.51927734 -14.19824219 56.35105469 -14.91210938 56.17773438 C-16.60431714 55.76927043 -18.30170866 55.38238258 -20 55 C-19.53576977 49.92341783 -18.0671846 47.3030102 -14.875 43.375 C-3.90723661 29.26361016 0.64227757 17.84104373 0 0 Z " fill="#0FE3BE" transform="translate(211,292)"/>
<path d="M0 0 C0.14695312 0.75023437 0.29390625 1.50046875 0.4453125 2.2734375 C1.92123243 9.00838249 3.93120923 14.21923704 7.79296875 19.94140625 C9 22 9 22 9 25 C7.71826172 26.66992188 7.71826172 26.66992188 5.9296875 28.46875 C5.28 29.12230469 4.6303125 29.77585937 3.9609375 30.44921875 C3.27257812 31.12597656 2.58421875 31.80273438 1.875 32.5 C1.20984375 33.17675781 0.5446875 33.85351562 -0.140625 34.55078125 C-3.87137879 38.25958943 -7.13944665 40.85077573 -12 43 C-13.94550677 44.25854162 -15.882618 45.53012756 -17.8125 46.8125 C-36.41788748 58.24399004 -54.67492871 58.34669739 -76 57 C-77.32 56.67 -78.64 56.34 -80 56 C-80.33 58.97 -80.66 61.94 -81 65 C-81.33 65 -81.66 65 -82 65 C-82.07347656 63.60587891 -82.07347656 63.60587891 -82.1484375 62.18359375 C-82.22320312 60.94738281 -82.29796875 59.71117187 -82.375 58.4375 C-82.44460937 57.21933594 -82.51421875 56.00117188 -82.5859375 54.74609375 C-83.01041312 50.90579076 -83.83825051 47.66942827 -85 44 C-83.78437378 44.02356567 -83.78437378 44.02356567 -82.54418945 44.04760742 C-79.47080965 44.09943913 -76.39765611 44.13668541 -73.32397461 44.16479492 C-71.36622098 44.18689361 -69.40866938 44.2250566 -67.45117188 44.26367188 C-55.54942992 44.35452487 -44.92646887 42.64726503 -34.375 37 C-33.69566406 36.65710938 -33.01632812 36.31421875 -32.31640625 35.9609375 C-29.07442563 34.28559446 -26.49029252 32.64863482 -24 30 C-23.22785156 29.56558594 -22.45570313 29.13117188 -21.66015625 28.68359375 C-18.35938772 26.5945611 -15.94793273 24.00919034 -13.4375 21.0625 C-12.95369873 20.49635986 -12.46989746 19.93021973 -11.97143555 19.34692383 C-7.68552841 14.07774909 -5.49336383 8.6305354 -4 2 C-4.99 1.67 -5.98 1.34 -7 1 C-4.53721199 -0.231394 -2.7204945 -0.07159196 0 0 Z " fill="#036594" transform="translate(302,335)"/>
<path d="M0 0 C0.33 0 0.66 0 1 0 C1.58810536 17.64994675 1.76852016 33.74981613 -10.58984375 47.80859375 C-18.1341321 54.9268517 -27.17547177 56.98174708 -37.36352539 56.70361328 C-41.69325225 56.26512966 -44.85793865 54.79158864 -48.66714478 52.76507568 C-60.00022809 46.7611737 -69.94357426 45.75923841 -82.61279297 46.15625 C-85.65833836 46.2510376 -88.69920751 46.27934457 -91.74609375 46.296875 C-93.71880618 46.32435072 -95.69147203 46.35546709 -97.6640625 46.390625 C-98.5559024 46.40337463 -99.44774231 46.41612427 -100.36660767 46.42926025 C-105.8476381 46.61389014 -110.53281951 47.55357498 -115.71200562 49.37127686 C-121.06824067 50.84312878 -125.58557201 49.75960022 -130.375 47.1875 C-132.76510979 45.19574184 -134.5152377 43.72206423 -136 41 C-136.1875 38.25 -136.1875 38.25 -136 36 C-135.62875 36.86625 -135.62875 36.86625 -135.25 37.75 C-132.8762721 42.02271023 -129.44807786 45.02307651 -125 47 C-119.52694883 47.6587932 -115.15953106 46.89533794 -110 45 C-102.444161 42.99973905 -95.15718395 42.72012816 -87.375 42.8125 C-85.66618652 42.82325562 -85.66618652 42.82325562 -83.92285156 42.83422852 C-62.57685563 43.03837342 -62.57685563 43.03837342 -55.0625 44.6171875 C-51.26499105 45.09187612 -47.94429664 44.4895035 -44.25 43.6875 C-43.57839844 43.55666016 -42.90679687 43.42582031 -42.21484375 43.29101562 C-38.19488182 42.47311034 -38.19488182 42.47311034 -35 40 C-33.845 39.5875 -32.69 39.175 -31.5 38.75 C-23.44288369 35.82947879 -17.18373682 31.80365457 -12 25 C-11.34 25 -10.68 25 -10 25 C-10 24.34 -10 23.68 -10 23 C-9.34 23 -8.68 23 -8 23 C-7.72285156 22.43667969 -7.44570313 21.87335938 -7.16015625 21.29296875 C-6.38440607 19.75975206 -5.57924959 18.24107636 -4.74609375 16.73828125 C-1.65513164 11.00846791 -0.31480178 6.50590348 0 0 Z " fill="#17226A" transform="translate(399,277)"/>
<path d="M0 0 C4.00312271 0.50637792 5.78204806 1.35657261 8.4375 4.375 C11.34615744 7.48139512 14.02118157 9.35024602 18 11 C15.46222075 15.79358302 13.06052618 19.31719719 9 23 C8.52046875 23.47179687 8.0409375 23.94359375 7.546875 24.4296875 C-3.84953891 35.10691024 -18.7982131 38.30403574 -34 38 C-34.33 40.64 -34.66 43.28 -35 46 C-35.33 46 -35.66 46 -36 46 C-36.09087891 44.66195312 -36.09087891 44.66195312 -36.18359375 43.296875 C-36.26738281 42.12640625 -36.35117188 40.9559375 -36.4375 39.75 C-36.51871094 38.58984375 -36.59992188 37.4296875 -36.68359375 36.234375 C-36.93247787 33.69022624 -37.28114942 31.44046752 -38 29 C-37.20078125 28.78085937 -36.4015625 28.56171875 -35.578125 28.3359375 C-21.97018733 24.40688507 -10.68404236 19.96444589 -3.40234375 7.19921875 C-2.19631112 4.82410714 -1.06079029 2.44287764 0 0 Z " fill="#06BEBB" transform="translate(250,326)"/>
<path d="M0 0 C13.93281836 -1.3629931 23.58161173 1.49995818 35.88208008 8.06030273 C39.73500045 9.7698002 43.46750262 10.12607141 47.64453125 10.09765625 C48.48564453 10.09443359 49.32675781 10.09121094 50.19335938 10.08789062 C51.05767578 10.07951172 51.92199219 10.07113281 52.8125 10.0625 C53.69615234 10.05798828 54.57980469 10.05347656 55.49023438 10.04882812 C57.66018559 10.03709866 59.83010172 10.01916495 62 10 C52.88173157 19.52173163 42.618525 24.02878214 29.5 24.4375 C19.79723788 24.20299215 12.77947303 21.61231666 5.6953125 14.9296875 C1.65841205 10.33469022 -0.25446264 6.12830867 0 0 Z " fill="#0D2A65" transform="translate(315,335)"/>
<path d="M0 0 C4.40147599 3.75959408 8.77268436 7.54810121 13.10546875 11.38671875 C15.01359841 13.01157967 16.97999455 14.51746828 19 16 C18.54548816 17.73017508 18.08621143 19.45909877 17.625 21.1875 C17.24214844 22.63189453 17.24214844 22.63189453 16.8515625 24.10546875 C15.02348154 30.31926689 12.55617218 34.04852692 8.1875 38.75 C7.66607422 39.33910156 7.14464844 39.92820312 6.60742188 40.53515625 C3.61740372 43.78274151 1.64028482 45.75983738 -3 46 C-3 46.66 -3 47.32 -3 48 C-4.91512272 48.50588147 -6.83216922 49.00448391 -8.75 49.5 C-9.81734375 49.7784375 -10.8846875 50.056875 -11.984375 50.34375 C-15 51 -15 51 -19 51 C-17.53052364 47.73449698 -15.59697809 44.86808724 -13.57202148 41.92333984 C-5.92220802 30.79402674 0.23452934 21.01601236 0.0625 7.1875 C0.05798828 6.49462891 0.05347656 5.80175781 0.04882812 5.08789062 C0.03713156 3.39188932 0.01919924 1.69593297 0 0 Z " fill="#18F7D8" transform="translate(211,292)"/>
<path d="M0 0 C-0.977302 8.0138764 -3.99355526 13.60424089 -9.1875 19.5625 C-9.92432007 20.4143689 -9.92432007 20.4143689 -10.67602539 21.28344727 C-19.53661929 31.31253469 -31.12552821 37.45736011 -44 41 C-45.09054688 41.34933594 -46.18109375 41.69867188 -47.3046875 42.05859375 C-53.21252875 43.51631923 -59.26009293 43.33521167 -65.31103516 43.31567383 C-67.39146524 43.31247468 -69.47052232 43.33617355 -71.55078125 43.36132812 C-72.86175781 43.36197266 -74.17273438 43.36261719 -75.5234375 43.36328125 C-76.71888184 43.36626221 -77.91432617 43.36924316 -79.14599609 43.37231445 C-80.08781738 43.24945068 -81.02963867 43.12658691 -82 43 C-84.1519437 39.77208445 -84.20086443 38.71599191 -84 35 C-83.08347656 35.32226562 -82.16695312 35.64453125 -81.22265625 35.9765625 C-76.02114542 37.45226103 -70.8101516 37.38298189 -65.4375 37.375 C-63.84264771 37.37367065 -63.84264771 37.37367065 -62.21557617 37.37231445 C-53.02716329 37.2345477 -44.38582302 36.23149381 -36.34375 31.40625 C-33.57086879 29.74252128 -31.1874335 29.3706318 -28 29 C-28 28.34 -28 27.68 -28 27 C-27.01 27 -26.02 27 -25 27 C-24.73832031 26.41734375 -24.47664063 25.8346875 -24.20703125 25.234375 C-22.93352727 22.87695015 -21.51067536 21.20657843 -19.6875 19.25 C-15.44297373 14.49259347 -11.86601908 9.75088414 -9.9375 3.625 C-9 1 -9 1 -7.1875 -0.4375 C-4.48685659 -1.13195116 -2.66170427 -0.7393623 0 0 Z " fill="#0383A7" transform="translate(298,337)"/>
<path d="M0 0 C0 0.66 0 1.32 0 2 C0.66 2 1.32 2 2 2 C2 5 2 5 0.35546875 6.71875 C-0.35996094 7.3065625 -1.07539063 7.894375 -1.8125 8.5 C-4.32278156 10.5850426 -6.70007574 12.68704501 -9 15 C-11.944053 17.20803975 -13.82573568 17.9751051 -17.5 18.5 C-21 18 -21 18 -23.9375 16.0625 C-26.32080897 12.52364728 -26.85905889 10.42896492 -26.61328125 6.22265625 C-25.6637827 2.78147998 -23.83192316 1.14836699 -20.9921875 -0.91015625 C-14.86144262 -4.26403433 -5.91181468 -3.69488418 0 0 Z " fill="#EA2391" transform="translate(374,267)"/>
<path d="M0 0 C0.61875 0.78375 1.2375 1.5675 1.875 2.375 C3.89858661 4.96837647 3.89858661 4.96837647 6 7 C11.08516757 7.47973279 13.81754639 6.86796819 18 4 C18.66 4 19.32 4 20 4 C20.474375 5.134375 20.94875 6.26875 21.4375 7.4375 C22.63622083 10.75740166 22.63622083 10.75740166 24 12 C25.51928038 12.07179964 27.04167482 12.08392007 28.5625 12.0625 C29.38878906 12.05347656 30.21507812 12.04445313 31.06640625 12.03515625 C31.70449219 12.02355469 32.34257812 12.01195312 33 12 C31.70703125 13.51953125 31.70703125 13.51953125 30 15 C28.906875 14.896875 27.81375 14.79375 26.6875 14.6875 C23.06217244 14.59844642 23.06217244 14.59844642 21.38671875 16.59375 C20.36613628 18.0072699 19.37428121 19.44191632 18.41015625 20.89453125 C13.86568515 27.67976649 8.62115436 30.30565008 0.9375 32.1875 C0.20466797 32.37763672 -0.52816406 32.56777344 -1.28320312 32.76367188 C-6.75120708 34.12439646 -6.75120708 34.12439646 -9 33 C-6.35055546 30.35055546 -4.21178428 30.24857113 -0.5625 29.5 C3.29898789 28.70612986 5.69953905 28.2003073 9 26 C9.99 26 10.98 26 12 26 C11.91243466 21.621733 11.31487543 18.74284858 8.25 15.625 C3.86220318 12.14407559 -0.79016526 12.36103681 -6.20703125 12.3984375 C-7.12871094 12.26695312 -8.05039062 12.13546875 -9 12 C-10.38671875 9.9765625 -10.38671875 9.9765625 -11 8 C-10.06027344 7.63648438 -10.06027344 7.63648438 -9.1015625 7.265625 C-8.28429687 6.93046875 -7.46703125 6.5953125 -6.625 6.25 C-5.81289063 5.92515625 -5.00078125 5.6003125 -4.1640625 5.265625 C-1.66684861 3.80516056 -1.01755741 2.66130399 0 0 Z " fill="#AE0C76" transform="translate(347,277)"/>
<path d="M0 0 C0.99 0.66 1.98 1.32 3 2 C1.68 4.64 0.36 7.28 -1 10 C0.98 10 2.96 10 5 10 C5 14.62 5 19.24 5 24 C3.02 24 1.04 24 -1 24 C-0.67 28.29 -0.34 32.58 0 37 C1.32 37 2.64 37 4 37 C4.33 35.02 4.66 33.04 5 31 C5.99 31.33 6.98 31.66 8 32 C7.6875 35.375 7.6875 35.375 7 39 C4 41 4 41 0.375 40.6875 C-3 40 -3 40 -4 39 C-4.07313567 36.46950598 -4.09247527 33.96695163 -4.0625 31.4375 C-4.05798828 30.72658203 -4.05347656 30.01566406 -4.04882812 29.28320312 C-4.03700864 27.52209987 -4.01907263 25.76103964 -4 24 C-5.97439869 24.1697844 -5.97439869 24.1697844 -8 25 C-8.99624333 26.91740912 -8.99624333 26.91740912 -9.5 29.25 C-10.68979936 33.27356881 -11.9257316 36.01615126 -15 39 C-17.75 40.3125 -17.75 40.3125 -20 41 C-19.65295981 37.87663828 -18.96277214 36.96473151 -16.625 34.75 C-13.33822744 31.30671446 -12.44811436 28.49677616 -11 24 C-12.65 24 -14.3 24 -16 24 C-16 19.38 -16 14.76 -16 10 C-12.04 10 -8.08 10 -4 10 C-3.71125 9.0925 -3.4225 8.185 -3.125 7.25 C-2.23468224 4.67797092 -1.28505587 2.38653234 0 0 Z M-13 13 C-13 15.64 -13 18.28 -13 21 C-8.05 21 -3.1 21 2 21 C2 18.36 2 15.72 2 13 C-2.95 13 -7.9 13 -13 13 Z " fill="#2E86D3" transform="translate(262,532)"/>
<path d="M0 0 C9.57 0 19.14 0 29 0 C29 3.96 29 7.92 29 12 C24.71 12 20.42 12 16 12 C16 12.99 16 13.98 16 15 C21.94 15 27.88 15 34 15 C33.67 15.99 33.34 16.98 33 18 C20.79 18 8.58 18 -4 18 C-4.33 17.01 -4.66 16.02 -5 15 C3.415 14.505 3.415 14.505 12 14 C12 13.34 12 12.68 12 12 C8.04 12 4.08 12 0 12 C0 8.04 0 4.08 0 0 Z M3 2 C3 2.99 3 3.98 3 5 C10.59 5 18.18 5 26 5 C26 4.01 26 3.02 26 2 C18.41 2 10.82 2 3 2 Z M3 7 C3 7.99 3 8.98 3 10 C10.59 10 18.18 10 26 10 C26 9.01 26 8.02 26 7 C18.41 7 10.82 7 3 7 Z " fill="#2C85CE" transform="translate(280,534)"/>
<path d="M0 0 C3.74715442 1.53544641 5.03063039 3.42295258 6.640625 7.08203125 C7.6727847 10.49609794 7.78367012 11.65289588 6.640625 15.08203125 C-1.609375 14.75203125 -9.859375 14.42203125 -18.359375 14.08203125 C-19.359375 10.08203125 -19.359375 10.08203125 -18.296875 7.14453125 C-13.32302806 -0.71735585 -8.72993576 -2.50242923 0 0 Z " fill="#D41E88" transform="translate(281.359375,296.91796875)"/>
<path d="M0 0 C1.2065625 0.0309375 1.2065625 0.0309375 2.4375 0.0625 C4.00818858 4.29682728 5.57465849 8.53268165 7.13720703 12.77001953 C7.66957236 14.21185584 8.20309627 15.65326492 8.73779297 17.09423828 C9.50531766 19.1632798 10.2686884 21.23381251 11.03125 23.3046875 C11.27186157 23.95057831 11.51247314 24.59646912 11.76037598 25.26193237 C13.4375 29.83475659 13.4375 29.83475659 13.4375 32.0625 C11.125 32.0625 11.125 32.0625 8.4375 31.0625 C7.02461853 28.45198072 6.302195 25.92964656 5.4375 23.0625 C1.4775 23.0625 -2.4825 23.0625 -6.5625 23.0625 C-8.5425 27.5175 -8.5425 27.5175 -10.5625 32.0625 C-11.8825 32.0625 -13.2025 32.0625 -14.5625 32.0625 C-12.52638077 24.89913306 -10.11448394 17.94741069 -7.4375 11 C-7.07785156 10.05189453 -6.71820313 9.10378906 -6.34765625 8.12695312 C-3.26719768 0.07968775 -3.26719768 0.07968775 0 0 Z M-0.5625 5.0625 C-3.80808406 11.81755602 -3.80808406 11.81755602 -5.5625 19.0625 C-2.2625 19.0625 1.0375 19.0625 4.4375 19.0625 C3.98607225 17.28989369 3.52609477 15.5194632 3.0625 13.75 C2.80726563 12.76386719 2.55203125 11.77773438 2.2890625 10.76171875 C1.51836826 7.8819184 1.51836826 7.8819184 -0.5625 5.0625 Z " fill="#287FD9" transform="translate(332.5625,536.9375)"/>
<path d="M0 0 C6.37534247 0.49041096 6.37534247 0.49041096 9.375 2.9375 C12.31918897 6.67435523 12.40224663 9.25348971 12 14 C10.08244385 17.39259935 8.83692691 18.68382761 5.1875 20.0625 C0.94114128 19.97923806 -1.86696603 18.89393401 -5 16 C-6.85175615 11.75639216 -7.56310725 8.42880387 -6 4 C-5.34 3.67 -4.68 3.34 -4 3 C-4 3.66 -4 4.32 -4 5 C-1.69 4.01 0.62 3.02 3 2 C2.01 1.34 1.02 0.68 0 0 Z " fill="#F63386" transform="translate(239,265)"/>
<path d="M0 0 C0.33 0 0.66 0 1 0 C1 14.19 1 28.38 1 43 C-4.07375 43.061875 -4.07375 43.061875 -9.25 43.125 C-19.28227005 43.46751142 -27.60728174 44.44452364 -34.94140625 52 C-36.46916835 53.94375515 -37.7545886 55.86677057 -39 58 C-39.54527344 58.90621094 -40.09054688 59.81242187 -40.65234375 60.74609375 C-41.09707031 61.48988281 -41.54179687 62.23367188 -42 63 C-43.98203709 62.38416344 -45.9605772 61.75706166 -47.9375 61.125 C-49.59072266 60.60292969 -49.59072266 60.60292969 -51.27734375 60.0703125 C-54 59 -54 59 -55 57 C-52 56 -52 56 -49.8125 56.9375 C-49.214375 57.288125 -48.61625 57.63875 -48 58 C-48 58.66 -48 59.32 -48 60 C-44.98106432 60.34149109 -44.98106432 60.34149109 -43.31640625 58.42578125 C-42.73761719 57.72839844 -42.15882813 57.03101563 -41.5625 56.3125 C-40.94890625 55.58546875 -40.3353125 54.8584375 -39.703125 54.109375 C-38.36873114 52.45668536 -37.08117962 50.76615549 -35.8125 49.0625 C-33.86890248 46.85082007 -32.88588781 46.30920227 -30 46 C-30 45.01 -30 44.02 -30 43 C-28.515 43.495 -28.515 43.495 -27 44 C-26.34 43.01 -25.68 42.02 -25 41 C-22.06640625 40.234375 -22.06640625 40.234375 -18.5625 39.75 C-17.40878906 39.57984375 -16.25507813 39.4096875 -15.06640625 39.234375 C-12 39 -12 39 -9 40 C-5.95804573 40.33340471 -5.95804573 40.33340471 -3 40 C-0.46239173 36.19358759 -0.65022525 33.03139645 -0.5859375 28.61328125 C-0.56657135 27.79627243 -0.5472052 26.97926361 -0.5272522 26.13749695 C-0.46749648 23.52927066 -0.42108742 20.92100014 -0.375 18.3125 C-0.3368165 16.5436006 -0.29776454 14.77471972 -0.2578125 13.00585938 C-0.16179832 8.67072341 -0.07775265 4.3355004 0 0 Z " fill="#C0257F" transform="translate(292,239)"/>
<path d="M0 0 C0.2475 0.5775 0.495 1.155 0.75 1.75 C3.1237279 6.02271023 6.55192214 9.02307651 11 11 C16.47305117 11.6587932 20.84046894 10.89533794 26 9 C33.555839 6.99973905 40.84281605 6.72012816 48.625 6.8125 C50.33381348 6.82325562 50.33381348 6.82325562 52.07714844 6.83422852 C72.45802695 7.02914341 72.45802695 7.02914341 81.2109375 8.5625 C84.38202901 9.05992612 86.87868654 8.66885289 90 8 C89.67 8.66 89.34 9.32 89 10 C86.66666667 10.66666667 84.33333333 11.33333333 82 12 C81.67 12.66 81.34 13.32 81 14 C80.05938721 13.51321777 79.11877441 13.02643555 78.1496582 12.52490234 C73.35133568 10.48087329 68.75523531 10.56824713 63.60546875 10.6015625 C62.61807205 10.59869232 61.63067535 10.59582214 60.61335754 10.59286499 C58.53153915 10.59083073 56.44970136 10.59631577 54.36791992 10.60888672 C51.2077275 10.62489752 48.04882396 10.60904243 44.88867188 10.58984375 C42.85676805 10.5918273 40.82486501 10.59567328 38.79296875 10.6015625 C37.86034714 10.59548981 36.92772552 10.58941711 35.96684265 10.5831604 C30.32239125 10.64262601 25.59846766 11.47143228 20.27192688 13.36386108 C14.93185624 14.85907943 10.40121427 13.75250396 5.625 11.1875 C3.23489021 9.19574184 1.4847623 7.72206423 0 5 C-0.1875 2.25 -0.1875 2.25 0 0 Z " fill="#5C0A57" transform="translate(263,313)"/>
<path d="M0 0 C9.24 0 18.48 0 28 0 C28 2.97 28 5.94 28 9 C22.06 9.495 22.06 9.495 16 10 C15.855625 11.299375 15.71125 12.59875 15.5625 13.9375 C15.125 17.875 15.125 17.875 14 19 C11.66702567 19.04092937 9.33294775 19.04241723 7 19 C6.67 18.34 6.34 17.68 6 17 C7.98 16.34 9.96 15.68 12 15 C12 13.35 12 11.7 12 10 C8.04 9.67 4.08 9.34 0 9 C0 6.03 0 3.06 0 0 Z M3 2 C2.67 3.32 2.34 4.64 2 6 C3.01636977 7.23921211 3.01636977 7.23921211 5.13305664 7.11352539 C6.50772095 7.10567017 6.50772095 7.10567017 7.91015625 7.09765625 C8.89951172 7.09443359 9.88886719 7.09121094 10.90820312 7.08789062 C12.46958008 7.07532227 12.46958008 7.07532227 14.0625 7.0625 C15.10728516 7.05798828 16.15207031 7.05347656 17.22851562 7.04882812 C19.8190666 7.03699913 22.40950559 7.02051689 25 7 C24.67 5.35 24.34 3.7 24 2 C17.07 2 10.14 2 3 2 Z " fill="#2782D1" transform="translate(281,554)"/>
<path d="M0 0 C10.07368421 -0.62526316 10.07368421 -0.62526316 13.5 1.6875 C13.995 2.450625 14.49 3.21375 15 4 C15.5775 4.825 16.155 5.65 16.75 6.5 C18 9 18 9 18 13 C18.66 13 19.32 13 20 13 C20 13.66 20 14.32 20 15 C21.65 15 23.3 15 25 15 C24.67 16.32 24.34 17.64 24 19 C22.68 19.33 21.36 19.66 20 20 C20 19.34 20 18.68 20 18 C18.88109375 18.17402344 17.7621875 18.34804688 16.609375 18.52734375 C11.76950833 19.13179406 7.10323655 18.89392196 2.25 18.5625 C0.58859223 18.45882201 -1.07286475 18.35592881 -2.734375 18.25390625 C-3.82057129 18.18151733 -3.82057129 18.18151733 -4.92871094 18.10766602 C-6.95006321 18.00259572 -8.97591879 18 -11 18 C-11.66 18.66 -12.32 19.32 -13 20 C-13 18.35 -13 16.7 -13 15 C-9.79138226 15.13995514 -6.58318712 15.28802257 -3.375 15.4375 C-2.47136719 15.47681641 -1.56773437 15.51613281 -0.63671875 15.55664062 C3.98216146 15.77578458 8.45153636 16.1008851 13 17 C12.50585052 10.42160018 12.50585052 10.42160018 9 5 C9 4.34 9 3.68 9 3 C6.03 2.34 3.06 1.68 0 1 C0 0.67 0 0.34 0 0 Z " fill="#A51277" transform="translate(275,295)"/>
<path d="M0 0 C4.95 0 9.9 0 15 0 C9.44945723 9.53999538 2.91909721 17.75234484 -7 23 C-7.66 23 -8.32 23 -9 23 C-9.495 24.485 -9.495 24.485 -10 26 C-21.40156565 33.48374371 -39.38417672 40.08926586 -53 39 C-49.59283768 36.72855845 -47.33209133 36.41637221 -43.3125 35.75 C-28.32719659 32.95820742 -13.1783684 27.20143855 -2.23046875 16.22265625 C0 14 0 14 2 14 C2.2475 13.443125 2.495 12.88625 2.75 12.3125 C4.91288622 8.31116049 7.796009 5.203991 11 2 C5.555 1.505 5.555 1.505 0 1 C0 0.67 0 0.34 0 0 Z " fill="#042B47" transform="translate(335,372)"/>
<path d="M0 0 C0.33 0 0.66 0 1 0 C1 4.62 1 9.24 1 14 C-0.98 14 -2.96 14 -5 14 C-4.67 18.29 -4.34 22.58 -4 27 C-2.68 27 -1.36 27 0 27 C0.33 25.02 0.66 23.04 1 21 C1.99 21.33 2.98 21.66 4 22 C3.6875 25.375 3.6875 25.375 3 29 C0 31 0 31 -3.625 30.6875 C-7 30 -7 30 -8 29 C-8.07313567 26.46950598 -8.09247527 23.96695163 -8.0625 21.4375 C-8.05798828 20.72658203 -8.05347656 20.01566406 -8.04882812 19.28320312 C-8.03700864 17.52209987 -8.01907263 15.76103964 -8 14 C-8.7425 13.87625 -9.485 13.7525 -10.25 13.625 C-13 13 -13 13 -17 11 C-11.72 11 -6.44 11 -1 11 C-0.67 7.37 -0.34 3.74 0 0 Z " fill="#3C8CD6" transform="translate(266,542)"/>
<path d="M0 0 C2.04121113 3.0618167 2.24711621 3.62264448 2.21118164 7.05664062 C2.20780289 7.86758179 2.20442413 8.67852295 2.20094299 9.51403809 C2.18748337 10.38596802 2.17402374 11.25789795 2.16015625 12.15625 C2.15495468 13.05492798 2.14975311 13.95360596 2.14439392 14.8795166 C2.12657 17.75317484 2.09539926 20.62647785 2.0625 23.5 C2.03488417 26.37348766 2.01017022 29.24692454 1.99131775 32.1204834 C1.97906158 33.90902253 1.96145883 35.69753459 1.93800354 37.48596191 C1.92820717 38.70237366 1.92820717 38.70237366 1.91821289 39.94335938 C1.90995987 40.65600952 1.90170685 41.36865967 1.89320374 42.10290527 C1.929479 44.2257812 1.929479 44.2257812 3 47 C2.54013374 50.06048927 1.74156518 52.99011782 1 56 C5.455 55.505 5.455 55.505 10 55 C9.67 55.66 9.34 56.32 9 57 C6.67843403 57.40729228 4.3431213 57.74438677 2 58 C2.00523682 58.63091553 2.01047363 59.26183105 2.01586914 59.91186523 C2.03657826 62.75373347 2.04964066 65.59558588 2.0625 68.4375 C2.07087891 69.43072266 2.07925781 70.42394531 2.08789062 71.44726562 C2.09111328 72.39150391 2.09433594 73.33574219 2.09765625 74.30859375 C2.10289307 75.18314209 2.10812988 76.05769043 2.11352539 76.95874023 C2 79 2 79 1 80 C0.76572222 82.01594582 0.58663876 84.038474 0.4375 86.0625 C0.35371094 87.16722656 0.26992188 88.27195312 0.18359375 89.41015625 C0.12300781 90.26480469 0.06242187 91.11945313 0 92 C-0.33 92 -0.66 92 -1 92 C-1.08798432 73.14080619 -0.8278368 54.29113325 -0.53643799 35.43493652 C-0.47484586 31.42474231 -0.41525448 27.41451835 -0.35546875 23.40429688 C-0.23888004 15.60283505 -0.12016358 7.80140767 0 0 Z " fill="#E24C74" transform="translate(304,201)"/>
<path d="M0 0 C5.94 0 11.88 0 18 0 C16.70273248 5.18907007 14.70730784 6.04531386 10.3671875 8.8046875 C7.44005327 10.28274538 5.23150514 10.49715464 2 10 C0.26265853 6.19956554 0 4.40285423 0 0 Z " fill="#0E457E" transform="translate(315,335)"/>
<path d="M0 0 C1.32 0 2.64 0 4 0 C4 10.23 4 20.46 4 31 C2.68 31.33 1.36 31.66 0 32 C-1.47308269 29.05383462 -1.00294692 26.52237406 -0.87890625 23.2421875 C-0.84348976 22.24761032 -0.84348976 22.24761032 -0.80735779 21.23294067 C-0.73073184 19.11340871 -0.64670357 16.99424315 -0.5625 14.875 C-0.50927819 13.43882006 -0.4565378 12.0026222 -0.40429688 10.56640625 C-0.27511856 7.04404564 -0.1392997 3.52197648 0 0 Z " fill="#3887E0" transform="translate(352,537)"/>
<path d="M0 0 C0.66 0.33 1.32 0.66 2 1 C2 14.2 2 27.4 2 41 C1.01 41 0.02 41 -1 41 C-1.02464705 35.32169922 -1.04283462 29.64342931 -1.05493164 23.96508789 C-1.05997256 22.03181415 -1.06680519 20.09854424 -1.07543945 18.1652832 C-1.08751565 15.39273128 -1.09323057 12.62022959 -1.09765625 9.84765625 C-1.10281754 8.97786636 -1.10797882 8.10807648 -1.11329651 7.21192932 C-1.11349185 5.14094186 -1.06208168 3.07005676 -1 1 C-0.67 0.67 -0.34 0.34 0 0 Z " fill="#3485CD" transform="translate(236,532)"/>
<path d="M0 0 C0.99 0.33 1.98 0.66 3 1 C4.40664926 1.14492123 5.8181133 1.24628931 7.23046875 1.31640625 C8.43413086 1.37924805 8.43413086 1.37924805 9.66210938 1.44335938 C10.49548828 1.48267578 11.32886719 1.52199219 12.1875 1.5625 C13.03248047 1.60568359 13.87746094 1.64886719 14.74804688 1.69335938 C16.83184433 1.79931518 18.91590103 1.9001502 21 2 C20.67 2.99 20.34 3.98 20 5 C7.79 5 -4.42 5 -17 5 C-17.33 4.01 -17.66 3.02 -18 2 C-12.06 2 -6.12 2 0 2 C0 1.34 0 0.68 0 0 Z " fill="#3F90CE" transform="translate(293,547)"/>
<path d="M0 0 C0.66 0 1.32 0 2 0 C2 0.99 2 1.98 2 3 C0.53684861 4.30057902 -0.93501379 5.59525662 -2.48046875 6.796875 C-4.09224541 8.01036041 -4.09224541 8.01036041 -5.625 9.75 C-7.32642969 11.29675426 -8.76134195 11.61402447 -11 12 C-11 12.66 -11 13.32 -11 14 C-19.35844902 20.53859403 -31.27625975 25 -42 25 C-42.33 25.99 -42.66 26.98 -43 28 C-43.66 26.68 -44.32 25.36 -45 24 C-44.4652002 23.85900879 -43.93040039 23.71801758 -43.37939453 23.57275391 C-40.95933537 22.93052564 -38.54220059 22.27790092 -36.125 21.625 C-35.28324219 21.40328125 -34.44148438 21.1815625 -33.57421875 20.953125 C-32.76855469 20.73398437 -31.96289062 20.51484375 -31.1328125 20.2890625 C-30.38918457 20.09006348 -29.64555664 19.89106445 -28.87939453 19.68603516 C-26.79295945 19.07413968 -26.79295945 19.07413968 -25 17 C-23.845 16.5875 -22.69 16.175 -21.5 15.75 C-13.44288369 12.82947879 -7.18373682 8.80365457 -2 2 C-1.34 2 -0.68 2 0 2 C0 1.34 0 0.68 0 0 Z " fill="#3A1565" transform="translate(389,300)"/>
<path d="M0 0 C0.268125 0.5775 0.53625 1.155 0.8125 1.75 C1.204375 2.4925 1.59625 3.235 2 4 C2.350625 4.7425 2.70125 5.485 3.0625 6.25 C5.90324738 8.81583634 8.43536121 8.30591688 12.13671875 8.140625 C12.75160156 8.09421875 13.36648438 8.0478125 14 8 C12.70703125 9.51953125 12.70703125 9.51953125 11 11 C9.906875 10.896875 8.81375 10.79375 7.6875 10.6875 C4.06217244 10.59844642 4.06217244 10.59844642 2.38671875 12.59375 C1.36613628 14.0072699 0.37428121 15.44191632 -0.58984375 16.89453125 C-5.13431485 23.67976649 -10.37884564 26.30565008 -18.0625 28.1875 C-18.79533203 28.37763672 -19.52816406 28.56777344 -20.28320312 28.76367188 C-25.75120708 30.12439646 -25.75120708 30.12439646 -28 29 C-25.35055546 26.35055546 -23.21178428 26.24857113 -19.5625 25.5 C-15.70101211 24.70612986 -13.30046095 24.2003073 -10 22 C-9.01 22 -8.02 22 -7 22 C-7 21.01 -7 20.02 -7 19 C-5.125 16.8125 -5.125 16.8125 -3 15 C-2.34 15 -1.68 15 -1 15 C0.07525194 12.34771188 1.09456151 9.71631546 2 7 C1.34 7 0.68 7 0 7 C0 4.69 0 2.38 0 0 Z " fill="#861474" transform="translate(366,281)"/>
<path d="M0 0 C2 1 2 1 2.8515625 3.40625 C4.44928384 9.79713534 5.32924394 15.41512113 5 22 C4.67 21.01 4.34 20.02 4 19 C3.01 18.67 2.02 18.34 1 18 C-0.84499398 16.12382302 -2.3683599 14.07262391 -4 12 C-5.32 12.33 -6.64 12.66 -8 13 C-7.67 11.68 -7.34 10.36 -7 9 C-5.35 8.67 -3.7 8.34 -2 8 C-1.34 5.36 -0.68 2.72 0 0 Z " fill="#BA0C73" transform="translate(395,255)"/>
<path d="M0 0 C0 3 0 3 -2.4921875 5.56640625 C-3.613341 6.5723404 -4.74142595 7.5705834 -5.875 8.5625 C-7.07427757 9.64171878 -8.27217908 10.72246852 -9.46875 11.8046875 C-10.066875 12.34319336 -10.665 12.88169922 -11.28125 13.43652344 C-17.70668005 19.28147429 -23.54698698 25.32730403 -28.625 32.3828125 C-29.07875 32.91648438 -29.5325 33.45015625 -30 34 C-30.66 34 -31.32 34 -32 34 C-32.33 34.99 -32.66 35.98 -33 37 C-33.66 36.67 -34.32 36.34 -35 36 C-24.57331642 22.70640506 -13.86924198 9.85540451 0 0 Z " fill="#284254" transform="translate(205,167)"/>
<path d="M0 0 C0 0.66 0 1.32 0 2 C0.66 2 1.32 2 2 2 C2 2.99 2 3.98 2 5 C0.25 6.60546875 0.25 6.60546875 -2 8.1875 C-2.7425 8.71730469 -3.485 9.24710937 -4.25 9.79296875 C-4.8275 10.19128906 -5.405 10.58960938 -6 11 C-6.10957031 10.37351562 -6.21914063 9.74703125 -6.33203125 9.1015625 C-6.49058594 8.28429687 -6.64914062 7.46703125 -6.8125 6.625 C-6.96332031 5.81289063 -7.11414063 5.00078125 -7.26953125 4.1640625 C-7.87544942 1.64179359 -7.87544942 1.64179359 -11 0 C-13.0492094 -0.45139459 -13.0492094 -0.45139459 -15.1875 -0.625 C-16.445625 -0.74875 -17.70375 -0.8725 -19 -1 C-19 -1.33 -19 -1.66 -19 -2 C-12.4894704 -3.2207243 -5.87980287 -3.67487679 0 0 Z " fill="#D81D8A" transform="translate(374,267)"/>
<path d="M0 0 C0.95777344 0.00902344 1.91554688 0.01804688 2.90234375 0.02734375 C3.97162109 0.04474609 3.97162109 0.04474609 5.0625 0.0625 C5.0625 0.7225 5.0625 1.3825 5.0625 2.0625 C4.48419434 2.03349609 3.90588867 2.00449219 3.31005859 1.97460938 C-3.85949029 1.77651645 -10.34431325 2.96903331 -17.3125 4.5625 C-19.42369386 5.03477432 -21.53564705 5.50367034 -23.6484375 5.96875 C-24.56931152 6.17822266 -25.49018555 6.38769531 -26.43896484 6.60351562 C-28.9375 7.0625 -28.9375 7.0625 -32.9375 7.0625 C-33.2675 7.7225 -33.5975 8.3825 -33.9375 9.0625 C-35.90625 9.7734375 -35.90625 9.7734375 -38.4375 10.4375 C-43.51353729 11.86376408 -48.18304456 13.8001142 -52.9375 16.0625 C-53.2675 15.4025 -53.5975 14.7425 -53.9375 14.0625 C-37.05156243 6.75311994 -18.68731343 -0.23070757 0 0 Z " fill="#37586B" transform="translate(285.9375,136.9375)"/>
<path d="M0 0 C0.66 0.33 1.32 0.66 2 1 C0.78258021 2.46815389 -0.44948761 3.92416847 -1.6875 5.375 C-2.37199219 6.18710938 -3.05648438 6.99921875 -3.76171875 7.8359375 C-6 10 -6 10 -8.40625 10.9375 C-11.96051741 12.39346496 -14.21511131 14.89236678 -16.8125 17.625 C-17.31458984 18.140625 -17.81667969 18.65625 -18.33398438 19.1875 C-19.56296227 20.45159154 -20.78246001 21.72488806 -22 23 C-22.99 22.67 -23.98 22.34 -25 22 C-25.08090971 20.37581255 -25.13914995 18.75048255 -25.1875 17.125 C-25.22230469 16.22007812 -25.25710938 15.31515625 -25.29296875 14.3828125 C-25.19628906 13.59648437 -25.09960938 12.81015625 -25 12 C-24.01 11.34 -23.02 10.68 -22 10 C-22.33 12.97 -22.66 15.94 -23 19 C-21.88625 18.01 -20.7725 17.02 -19.625 16 C-16.25 13 -16.25 13 -14 13 C-13.773125 12.401875 -13.54625 11.80375 -13.3125 11.1875 C-11.62654529 8.37757549 -9.83683849 7.63906224 -7 6 C-4.60599927 4.06791227 -2.29727478 2.04570002 0 0 Z " fill="#F8467F" transform="translate(334,225)"/>
<path d="M0 0 C2.87014725 0.24479933 5.45683535 -0.11176743 8.24414062 -0.80859375 C7.91414063 -0.14859375 7.58414063 0.51140625 7.24414062 1.19140625 C3.74414062 2.19140625 3.74414062 2.19140625 0.24414062 3.19140625 C-0.08585937 3.85140625 -0.41585937 4.51140625 -0.75585938 5.19140625 C-1.70275635 4.70696045 -2.64965332 4.22251465 -3.62524414 3.72338867 C-8.32058581 1.721354 -12.80073835 1.71533034 -17.84570312 1.6796875 C-18.79022842 1.6617363 -19.73475372 1.6437851 -20.707901 1.62528992 C-23.70300937 1.57142469 -26.69796056 1.53736767 -29.69335938 1.50390625 C-31.73309468 1.47071218 -33.7728093 1.4362206 -35.8125 1.40039062 C-40.79350595 1.3157119 -45.7744672 1.24878753 -50.75585938 1.19140625 C-50.75585938 0.86140625 -50.75585938 0.53140625 -50.75585938 0.19140625 C-45.13677068 0.02209646 -39.51751894 -0.13825806 -33.89794922 -0.29077148 C-31.99130596 -0.34372486 -30.08472582 -0.3990093 -28.17822266 -0.45678711 C-8.94361292 -1.03675043 -8.94361292 -1.03675043 0 0 Z " fill="#6F4880" transform="translate(344.755859375,321.80859375)"/>
<path d="M0 0 C5.97646444 5.82322176 5.97646444 5.82322176 6.0625 10.125 C6.041875 11.07375 6.02125 12.0225 6 13 C5.34 12.67 4.68 12.34 4 12 C4 11.34 4 10.68 4 10 C1.0819231 8.43650383 -1.75543117 7.40215819 -4.9375 6.5 C-8.37918181 5.49850618 -11.70563866 4.42755658 -15 3 C-12 1 -12 1 -9.08203125 1.4609375 C-8.00308594 1.76257813 -6.92414063 2.06421875 -5.8125 2.375 C-4.72582031 2.67148438 -3.63914062 2.96796875 -2.51953125 3.2734375 C-1.68808594 3.51320312 -0.85664063 3.75296875 0 4 C0 2.68 0 1.36 0 0 Z " fill="#FB6882" transform="translate(279,231)"/>
<path d="M0 0 C4.29 0 8.58 0 13 0 C13.04241723 2.33294775 13.04092937 4.66702567 13 7 C12 8 12 8 9.875 8.5 C5.35234654 7.71345157 2.86481383 4.44273016 0 1 C0 0.67 0 0.34 0 0 Z " fill="#D72387" transform="translate(286,295)"/>
<path d="M0 0 C0.33 0 0.66 0 1 0 C1 13.86 1 27.72 1 42 C-4.94 42 -10.88 42 -17 42 C-17 41.67 -17 41.34 -17 41 C-16.01257813 40.96261719 -15.02515625 40.92523438 -14.0078125 40.88671875 C-12.72648437 40.82097656 -11.44515625 40.75523437 -10.125 40.6875 C-8.84882813 40.62949219 -7.57265625 40.57148438 -6.2578125 40.51171875 C-4.64519531 40.25841797 -4.64519531 40.25841797 -3 40 C-0.46239173 36.19358759 -0.65022525 33.03139645 -0.5859375 28.61328125 C-0.56657135 27.79627243 -0.5472052 26.97926361 -0.5272522 26.13749695 C-0.46749648 23.52927066 -0.42108742 20.92100014 -0.375 18.3125 C-0.3368165 16.5436006 -0.29776454 14.77471972 -0.2578125 13.00585938 C-0.16179832 8.67072341 -0.07775265 4.3355004 0 0 Z " fill="#CE1D6E" transform="translate(292,239)"/>
<path d="M0 0 C0.66 0 1.32 0 2 0 C2 11.375 2 11.375 1 15 C-0.65 15 -2.3 15 -4 15 C-4 14.34 -4 13.68 -4 13 C-4.66 13 -5.32 13 -6 13 C-7.25664978 10.09399739 -8 8.20395416 -8 5 C-7.34 5.66 -6.68 6.32 -6 7 C-3.41645782 7.16687448 -3.41645782 7.16687448 -1 7 C-0.67 4.69 -0.34 2.38 0 0 Z " fill="#BC1D80" transform="translate(299,295)"/>
<path d="M0 0 C2.31 0.33 4.62 0.66 7 1 C7 4 7 4 5.25 5.82421875 C4.5075 6.43910156 3.765 7.05398438 3 7.6875 C1.88625 8.62142578 1.88625 8.62142578 0.75 9.57421875 C0.1725 10.04472656 -0.405 10.51523437 -1 11 C-4.36748512 9.48052501 -5.60840337 8.47899158 -7 5 C-6.01 4.34 -5.02 3.68 -4 3 C-4 3.66 -4 4.32 -4 5 C-1.69 4.01 0.62 3.02 3 2 C2.01 1.34 1.02 0.68 0 0 Z " fill="#F9629A" transform="translate(239,265)"/>
<path d="M0 0 C0.66 0.33 1.32 0.66 2 1 C1.77169299 2.62818946 1.51656424 4.2526349 1.25 5.875 C1.11078125 6.77992188 0.9715625 7.68484375 0.828125 8.6171875 C0 11 0 11 -1.65625 12.5234375 C-5.26428994 13.25707229 -7.6996083 11.48416033 -10.75 9.75 C-15.78281525 7.04491094 -20.3584791 5.01547376 -26 4 C-24.3671875 2.859375 -24.3671875 2.859375 -22 2 C-19.1953125 2.828125 -19.1953125 2.828125 -16.125 4.25 C-12.12616107 6.0704433 -8.19166883 7.67368091 -4 9 C-2.68 6.03 -1.36 3.06 0 0 Z " fill="#DA0B7D" transform="translate(394,252)"/>
<path d="M0 0 C0.85368164 -0.00966797 1.70736328 -0.01933594 2.58691406 -0.02929688 C8.55923963 0.05288 8.55923963 0.05288 10.75 1.96459961 C11.1625 2.45065674 11.575 2.93671387 12 3.4375 C10.89785156 3.41429687 9.79570312 3.39109375 8.66015625 3.3671875 C-2.06345265 3.21353366 -12.38770236 3.93088365 -23 5.4375 C-23.67369629 5.53305176 -24.34739258 5.62860352 -25.04150391 5.72705078 C-26.69458267 5.96213873 -28.34732838 6.19956673 -30 6.4375 C-30 5.7775 -30 5.1175 -30 4.4375 C-19.99775007 1.90299323 -10.35283947 0.03804792 0 0 Z " fill="#30536C" transform="translate(301,168.5625)"/>
<path d="M0 0 C0.66 0.99 1.32 1.98 2 3 C1.45730469 3.80824219 0.91460937 4.61648438 0.35546875 5.44921875 C-0.71767578 7.05216797 -0.71767578 7.05216797 -1.8125 8.6875 C-2.87404297 10.27111328 -2.87404297 10.27111328 -3.95703125 11.88671875 C-6.53915212 15.82161423 -8.95758741 19.75806616 -11 24 C-12.32 24 -13.64 24 -15 24 C-13.15018787 19.89279001 -10.57992991 16.27870606 -8.0625 12.5625 C-5.27101109 8.43012122 -2.51575356 4.30916204 0 0 Z " fill="#30EAD5" transform="translate(207,319)"/>
<path d="M0 0 C-0.33 0.66 -0.66 1.32 -1 2 C-3.32156597 2.40729228 -5.6568787 2.74438677 -8 3 C-7.99476318 3.63091553 -7.98952637 4.26183105 -7.98413086 4.91186523 C-7.96342174 7.75373347 -7.95035934 10.59558588 -7.9375 13.4375 C-7.92912109 14.43072266 -7.92074219 15.42394531 -7.91210938 16.44726562 C-7.90888672 17.39150391 -7.90566406 18.33574219 -7.90234375 19.30859375 C-7.89710693 20.18314209 -7.89187012 21.05769043 -7.88647461 21.95874023 C-8 24 -8 24 -9 25 C-9.23427778 27.01594582 -9.41336124 29.038474 -9.5625 31.0625 C-9.68818359 32.71958984 -9.68818359 32.71958984 -9.81640625 34.41015625 C-9.87699219 35.26480469 -9.93757813 36.11945313 -10 37 C-10.33 37 -10.66 37 -11 37 C-11.18267281 14.88815905 -11.18267281 14.88815905 -10.75 6.6875 C-10.70359375 5.80449219 -10.6571875 4.92148437 -10.609375 4.01171875 C-10 2 -10 2 -8.15625 0.71484375 C-5.3733352 -0.207753 -2.91072531 -0.1323057 0 0 Z " fill="#E0498F" transform="translate(314,256)"/>
<path d="M0 0 C0.33 0 0.66 0 1 0 C1.33 4.29 1.66 8.58 2 13 C3.32 13 4.64 13 6 13 C6.33 11.02 6.66 9.04 7 7 C7.99 7.33 8.98 7.66 10 8 C9.6875 11.375 9.6875 11.375 9 15 C6 17 6 17 -1 16 C-0.67 10.72 -0.34 5.44 0 0 Z " fill="#3682CE" transform="translate(260,556)"/>
<path d="M0 0 C0.33 0 0.66 0 1 0 C1.04125 1.258125 1.0825 2.51625 1.125 3.8125 C1.30764489 6.00989526 1.30764489 6.00989526 2 8 C4.91841857 10.08632697 4.91841857 10.08632697 8 11 C8.33 9.35 8.66 7.7 9 6 C9.66 6.33 10.32 6.66 11 7 C11.34740923 8.99760305 11.67966043 10.99787771 12 13 C12.99 14.485 12.99 14.485 14 16 C13.34 16.33 12.68 16.66 12 17 C11.01 16.34 10.02 15.68 9 15 C7.824375 14.690625 6.64875 14.38125 5.4375 14.0625 C2 13 2 13 0 10 C-0.1953125 7.51953125 -0.1953125 7.51953125 -0.125 4.8125 C-0.10695313 3.91144531 -0.08890625 3.01039063 -0.0703125 2.08203125 C-0.04710937 1.39496094 -0.02390625 0.70789063 0 0 Z " fill="#AD1A7E" transform="translate(315,295)"/>
<path d="M0 0 C9.24 0 18.48 0 28 0 C28 2.97 28 5.94 28 9 C27.67 9 27.34 9 27 9 C26.67 7.02 26.34 5.04 26 3 C21.05 3 16.1 3 11 3 C11 2.34 11 1.68 11 1 C7.37 1 3.74 1 0 1 C0 0.67 0 0.34 0 0 Z " fill="#3A8DCF" transform="translate(281,554)"/>
<path d="M0 0 C0.2475 0.5775 0.495 1.155 0.75 1.75 C3.1237279 6.02271023 6.55192214 9.02307651 11 11 C16.68979688 11.69649114 21.62020921 10.83141814 27 9 C27.33 9.66 27.66 10.32 28 11 C21.48307533 13.40813292 15.83558111 14.93805748 9 13 C5.16828194 10.94222548 2.10733844 8.86345381 0 5 C-0.1875 2.25 -0.1875 2.25 0 0 Z " fill="#6E2370" transform="translate(263,313)"/>
<path d="M0 0 C8.34363232 -0.22151236 16.51103659 -0.00863385 24.8125 0.875 C25.5947998 0.95347168 26.37709961 1.03194336 27.18310547 1.11279297 C32.75360315 1.75360315 32.75360315 1.75360315 35 4 C31.60387586 3.8604947 28.20818542 3.71227678 24.8125 3.5625 C23.85279297 3.52318359 22.89308594 3.48386719 21.90429688 3.44335938 C20.97294922 3.40146484 20.04160156 3.35957031 19.08203125 3.31640625 C18.22843018 3.27974854 17.3748291 3.24309082 16.49536133 3.20532227 C13.93519273 2.99466756 11.51517611 2.50966843 9 2 C8.01 2 7.02 2 6 2 C3.99690671 1.68578929 1.99628664 1.3548954 0 1 C0 0.67 0 0.34 0 0 Z " fill="#3B5D73" transform="translate(291,136)"/>
<path d="M0 0 C4.95 0 9.9 0 15 0 C7.52173913 10.08695652 7.52173913 10.08695652 4 14 C3.34 14 2.68 14 2 14 C4.12451897 9.21983232 7.32535161 5.67464839 11 2 C7.37 1.67 3.74 1.34 0 1 C0 0.67 0 0.34 0 0 Z " fill="#0A314E" transform="translate(335,372)"/>
<path d="M0 0 C0.33 0 0.66 0 1 0 C1.08377802 3.93756704 0.96535552 7.71208103 0.5 11.625 C-0.05819645 16.32182439 -0.33113707 20.4149723 1 25 C1.33333333 26.33333333 1.66666667 27.66666667 2 29 C1.34 29.33 0.68 29.66 0 30 C-2.07092029 24.8720069 -2.30381069 20.43487949 -2.25 15 C-2.25773438 14.21882812 -2.26546875 13.43765625 -2.2734375 12.6328125 C-2.25794398 8.03123632 -1.74828303 4.3290818 0 0 Z " fill="#D9306E" transform="translate(214,240)"/>
<path d="M0 0 C0.99 0 1.98 0 3 0 C3.19818283 6.70518586 3.30844801 12.65176798 1 19 C0.67 19 0.34 19 0 19 C0 12.73 0 6.46 0 0 Z " fill="#217CE0" transform="translate(352,537)"/>
<path d="M0 0 C2 3 2 3 1.875 5.3125 C0.25434611 10.29022265 -2.4780792 14.28684752 -7 17 C-7.66 17 -8.32 17 -9 17 C-8.65295981 13.87663828 -7.96277214 12.96473151 -5.625 10.75 C-2.33822744 7.30671446 -1.44811436 4.49677616 0 0 Z " fill="#337ECA" transform="translate(251,556)"/>
<path d="M0 0 C-2.55488387 2.55488387 -3.76656946 2.30806871 -7.3125 2.5 C-10.43247963 2.6702581 -12.70508572 2.8725899 -15.5859375 4.1171875 C-18.51057238 5.18671417 -19.51281113 4.8587612 -22.3125 3.625 C-23.00988281 3.32851563 -23.70726562 3.03203125 -24.42578125 2.7265625 C-24.94527344 2.48679687 -25.46476562 2.24703125 -26 2 C-26 1.67 -26 1.34 -26 1 C-22.9792807 0.83100871 -19.95845177 0.66473871 -16.9375 0.5 C-16.08994141 0.45230469 -15.24238281 0.40460938 -14.36914062 0.35546875 C-9.57055312 0.09608564 -4.80550212 -0.05216285 0 0 Z " fill="#052C4A" transform="translate(282,411)"/>
<path d="M0 0 C3.74596154 3.21082417 5.46536141 7.39608423 7 12 C9.01508358 12.73323796 9.01508358 12.73323796 11 13 C11 13.66 11 14.32 11 15 C11.66 15 12.32 15 13 15 C13 15.99 13 16.98 13 18 C13.66 18 14.32 18 15 18 C15.66 19.32 16.32 20.64 17 22 C9.04503667 18.47430356 3.25060699 10.92335454 0 3 C0 2.01 0 1.02 0 0 Z " fill="#C92073" transform="translate(215,271)"/>
<path d="M0 0 C0.33 0.66 0.66 1.32 1 2 C0.2338202 3.66560826 -0.53347427 5.33072064 -1.30859375 6.9921875 C-2.07933169 9.23037563 -2.10858775 10.89581767 -2 13.25 C-2 17 -2 17 -3.5 18.734375 C-3.995 19.15203125 -4.49 19.5696875 -5 20 C-4.96519531 19.09507812 -4.96519531 19.09507812 -4.9296875 18.171875 C-4.91164063 17.37265625 -4.89359375 16.5734375 -4.875 15.75 C-4.85179687 14.96109375 -4.82859375 14.1721875 -4.8046875 13.359375 C-5.0171622 10.79268059 -5.71345895 9.2083933 -7 7 C-5.625 5.5 -5.625 5.5 -4 4 C-3.34 4 -2.68 4 -2 4 C-1.34 2.68 -0.68 1.36 0 0 Z " fill="#8B2379" transform="translate(386,268)"/>
<path d="M0 0 C0.66 0.33 1.32 0.66 2 1 C-4.59624684 5.44635898 -11.27494651 9.75127462 -18 14 C-18 13.01 -18 12.02 -18 11 C-15.77627822 9.33220867 -13.61501386 7.87574752 -11.25 6.4375 C-10.61578125 6.03853516 -9.9815625 5.63957031 -9.328125 5.22851562 C-2.58336764 1.02006806 -2.58336764 1.02006806 0 0 Z " fill="#2F4F61" transform="translate(226,154)"/>
<path d="M0 0 C0.33 0 0.66 0 1 0 C1.22641509 12.27672956 1.22641509 12.27672956 0 18 C-1.8125 19.3125 -1.8125 19.3125 -4 20 C-5.35113205 20.97581759 -6.68946944 21.97029741 -8 23 C-6.95914278 20.88439719 -5.88952264 18.80072775 -4.74609375 16.73828125 C-1.65513164 11.00846791 -0.31480178 6.50590348 0 0 Z " fill="#491168" transform="translate(399,277)"/>
<path d="M0 0 C4 4 4 4 4 7 C3.74035864 8.85892169 3.44514655 10.71303801 3.125 12.5625 C2.88136719 14.01849609 2.88136719 14.01849609 2.6328125 15.50390625 C2 18 2 18 0 20 C0 13.4 0 6.8 0 0 Z " fill="#3BE4DE" transform="translate(211,292)"/>
<path d="M0 0 C1.1875 1.5625 1.1875 1.5625 2 4 C0.84480964 7.87328531 -0.25640926 10.31837516 -3.25 13.0625 C-7.03540716 14.35297971 -9.330101 13.36721728 -13 12 C-10 11 -10 11 -7 10.6875 C-3.97312042 10.25734466 -3.97312042 10.25734466 -2.1875 8.3125 C-0.76956473 5.55125763 -0.34885393 3.06991457 0 0 Z " fill="#E5167B" transform="translate(251,273)"/>
<path d="M0 0 C0.99 0.33 1.98 0.66 3 1 C1.2123833 3.1493251 -0.57982184 5.29450607 -2.375 7.4375 C-2.88289063 8.04916016 -3.39078125 8.66082031 -3.9140625 9.29101562 C-7.7734375 13.88671875 -7.7734375 13.88671875 -10 15 C-9.43364626 11.12401658 -7.63666633 9.19058297 -5 6.375 C-2.16503895 3.41969243 -2.16503895 3.41969243 0 0 Z " fill="#152630" transform="translate(395,342)"/>
<path d="M0 0 C0.66 0.33 1.32 0.66 2 1 C1.34 2.32 0.68 3.64 0 5 C2.64 4.67 5.28 4.34 8 4 C7.67 6.31 7.34 8.62 7 11 C6.62875 10.34 6.2575 9.68 5.875 9 C4.09105222 6.64696955 4.09105222 6.64696955 0.8125 6.75 C-0.115625 6.8325 -1.04375 6.915 -2 7 C-1.125 1.125 -1.125 1.125 0 0 Z " fill="#F75C82" transform="translate(312,217)"/>
<path d="M0 0 C4 1.33333333 8 2.66666667 12 4 C12 4.99 12 5.98 12 7 C7.61110675 6.33501617 4.0188515 4.81242323 0 3 C0 2.01 0 1.02 0 0 Z " fill="#3185CC" transform="translate(302,565)"/>
<path d="M0 0 C-3.2870757 3.81300782 -6.39727838 5.22972246 -11 7 C-11.33 6.01 -11.66 5.02 -12 4 C-10.56988027 3.13353333 -9.13059381 2.28218171 -7.6875 1.4375 C-6.48673828 0.72400391 -6.48673828 0.72400391 -5.26171875 -0.00390625 C-3 -1 -3 -1 0 0 Z " fill="#3583C8" transform="translate(287,566)"/>
<path d="M0 0 C0.33 0 0.66 0 1 0 C1 3.96 1 7.92 1 12 C-0.134375 12.45375 -1.26875 12.9075 -2.4375 13.375 C-6.04721692 14.57095806 -6.04721692 14.57095806 -7 17 C-7.99 16.67 -8.98 16.34 -10 16 C-7.49316923 12.23975384 -5.13506066 11.60807914 -1 10 C-0.67 6.7 -0.34 3.4 0 0 Z " fill="#D3107E" transform="translate(343,270)"/>
<path d="M0 0 C0.33 2.64 0.66 5.28 1 8 C0.34 8 -0.32 8 -1 8 C-3 6 -3 6 -3.4375 3.9375 C-3.7159375 2.9784375 -3.7159375 2.9784375 -4 2 C-4.99 1.67 -5.98 1.34 -7 1 C-4.53721199 -0.231394 -2.7204945 -0.07159196 0 0 Z " fill="#126C92" transform="translate(302,335)"/>
<path d="M0 0 C0.99 0.33 1.98 0.66 3 1 C2.54625 1.7425 2.0925 2.485 1.625 3.25 C0.31359204 5.46930578 -0.88280803 7.67967822 -2 10 C-3.32 10 -4.64 10 -6 10 C-4.34832443 6.4213696 -2.21713508 3.25179812 0 0 Z " fill="#28E6CF" transform="translate(198,333)"/>
<path d="M0 0 C0.66 0 1.32 0 2 0 C3.55078125 1.57421875 3.55078125 1.57421875 5.3125 3.6875 C8.08499308 6.95300964 10.92600859 10.01915985 14 13 C11 13 11 13 8.30078125 10.6640625 C7.29685338 9.65880492 6.3010225 8.64541032 5.3125 7.625 C4.80138672 7.11710937 4.29027344 6.60921875 3.76367188 6.0859375 C0 2.26699141 0 2.26699141 0 0 Z " fill="#172637" transform="translate(183,404)"/>
<path d="M0 0 C4.52615993 3.67832017 8.39424999 7.41086363 12 12 C7.96945077 11.48256463 6.34736145 9.56870538 3.75 6.5625 C3.04359375 5.75941406 2.3371875 4.95632812 1.609375 4.12890625 C0 2 0 2 0 0 Z " fill="#D73181" transform="translate(367,211)"/>
<path d="M0 0 C0.66 0.33 1.32 0.66 2 1 C0.88266271 2.50571657 -0.24410035 4.00444292 -1.375 5.5 C-2.00148437 6.3353125 -2.62796875 7.170625 -3.2734375 8.03125 C-3.84320313 8.6809375 -4.41296875 9.330625 -5 10 C-5.66 10 -6.32 10 -7 10 C-7.33 10.99 -7.66 11.98 -8 13 C-8.66 12.67 -9.32 12.34 -10 12 C-8.52149287 10.18696196 -7.04217625 8.37458402 -5.5625 6.5625 C-4.32693359 5.04849609 -4.32693359 5.04849609 -3.06640625 3.50390625 C-1 1 -1 1 0 0 Z " fill="#213B4B" transform="translate(180,191)"/>
<path d="M0 0 C0.66 0.66 1.32 1.32 2 2 C-0.97 4.64 -3.94 7.28 -7 10 C-8.32 9.34 -9.64 8.68 -11 8 C-10.443125 7.7525 -9.88625 7.505 -9.3125 7.25 C-6.84535202 6.00800235 -6.84535202 6.00800235 -4.375 3.875 C-2 2 -2 2 0 2 C0 1.34 0 0.68 0 0 Z " fill="#F94C8E" transform="translate(245,266)"/>
<path d="M0 0 C-7.26 -0.33 -14.52 -0.66 -22 -1 C-22 -1.33 -22 -1.66 -22 -2 C-19.08379545 -2.24901747 -16.16888923 -2.47485086 -13.25 -2.6875 C-12.425 -2.76033203 -11.6 -2.83316406 -10.75 -2.90820312 C-9.95078125 -2.96298828 -9.1515625 -3.01777344 -8.328125 -3.07421875 C-7.5949707 -3.13182373 -6.86181641 -3.18942871 -6.10644531 -3.2487793 C-4 -3 -4 -3 0 0 Z " fill="#24485E" transform="translate(313,172)"/>
<path d="M0 0 C0.66 0 1.32 0 2 0 C1.67 3.96 1.34 7.92 1 12 C0.01 12 -0.98 12 -2 12 C-1.34 8.04 -0.68 4.08 0 0 Z " fill="#3689CE" transform="translate(231,541)"/>
<path d="M0 0 C1.859375 0.15234375 1.859375 0.15234375 4 1 C5.265625 3.50390625 5.265625 3.50390625 6.25 6.5625 C6.58515625 7.57441406 6.9203125 8.58632813 7.265625 9.62890625 C7.62914062 10.80259766 7.62914062 10.80259766 8 12 C6.68 12 5.36 12 4 12 C3.66376204 10.7090864 3.33110751 9.41723903 3 8.125 C2.814375 7.40570313 2.62875 6.68640625 2.4375 5.9453125 C2 4 2 4 2 2 C1.34 1.34 0.68 0.68 0 0 Z " fill="#2ECCC2" transform="translate(246,314)"/>
<path d="M0 0 C0 3 0 3 -1.96875 5.04296875 C-2.8040625 5.75066406 -3.639375 6.45835937 -4.5 7.1875 C-5.3353125 7.90292969 -6.170625 8.61835938 -7.03125 9.35546875 C-7.6809375 9.89816406 -8.330625 10.44085938 -9 11 C-9.99 10.67 -10.98 10.34 -12 10 C-8.04 6.7 -4.08 3.4 0 0 Z " fill="#2E4B5F" transform="translate(205,167)"/>
<path d="M0 0 C0.33 0 0.66 0 1 0 C2.20568053 4.67201205 2.09382426 9.21496292 2 14 C1.67 13.01 1.34 12.02 1 11 C0.01 10.67 -0.98 10.34 -2 10 C-2 9.01 -2 8.02 -2 7 C-1.34 7 -0.68 7 0 7 C0 4.69 0 2.38 0 0 Z " fill="#9F1A78" transform="translate(398,263)"/>
<path d="M0 0 C0.99 0.66 1.98 1.32 3 2 C-0.625 8.875 -0.625 8.875 -4 10 C-2.8905928 6.51329166 -1.73662334 3.22515763 0 0 Z " fill="#3482C4" transform="translate(262,532)"/>
<path d="M0 0 C0 0.66 0 1.32 0 2 C-1.78398614 3.28006797 -3.62853906 4.47660351 -5.5 5.625 C-7.03140625 6.57246094 -7.03140625 6.57246094 -8.59375 7.5390625 C-9.3878125 8.02117187 -10.181875 8.50328125 -11 9 C-8.9903806 4.56209049 -5.26444991 0 0 0 Z " fill="#D4318A" transform="translate(275,295)"/>
<path d="M0 0 C2.05786801 3.08680201 3.16854962 4.76978148 2.66015625 8.48046875 C2.46292969 9.37378906 2.26570313 10.26710937 2.0625 11.1875 C1.86785156 12.08855469 1.67320312 12.98960937 1.47265625 13.91796875 C1.31667969 14.60503906 1.16070312 15.29210937 1 16 C0.67 16 0.34 16 0 16 C0 10.72 0 5.44 0 0 Z " fill="#DD2A6F" transform="translate(304,242)"/>
<path d="M0 0 C1.5 1.3125 1.5 1.3125 3 3 C3 3.99 3 4.98 3 6 C4.32 6.33 5.64 6.66 7 7 C4.69 7 2.38 7 0 7 C-0.93423645 3.98968256 -1.04449911 3.13349732 0 0 Z " fill="#B92683" transform="translate(263,304)"/>
<path d="M0 0 C0.66 0.33 1.32 0.66 2 1 C-0.97 3.64 -3.94 6.28 -7 9 C-7 6 -7 6 -6 3 C-3.0625 1.25 -3.0625 1.25 0 0 Z " fill="#E2137E" transform="translate(353,259)"/>
<path d="M0 0 C-0.69941596 3.14737182 -1.76078698 6.02588876 -3 9 C-3.66 8.67 -4.32 8.34 -5 8 C-4.74438677 5.6568787 -4.40729228 3.32156597 -4 1 C-2 0 -2 0 0 0 Z " fill="#FA6681" transform="translate(261,237)"/>
<path d="M0 0 C3.51716303 3.51716303 3.54676163 5.19567333 4 10 C3.01 9.67 2.02 9.34 1 9 C0.67 6.03 0.34 3.06 0 0 Z " fill="#388DD4" transform="translate(240,540)"/>
<path d="M0 0 C4.29 0.33 8.58 0.66 13 1 C11.515 2.485 11.515 2.485 10 4 C6.7 3.01 3.4 2.02 0 1 C0 0.67 0 0.34 0 0 Z " fill="#153049" transform="translate(256,412)"/>
<path d="M0 0 C3.03336186 -0.22893297 5.97465051 -0.36475845 9 0 C11.0625 2 11.0625 2 12 4 C11.01 4.495 11.01 4.495 10 5 C9.01 4.34 8.02 3.68 7 3 C4.67891331 2.29187186 2.34622853 1.61975848 0 1 C0 0.67 0 0.34 0 0 Z " fill="#8C1771" transform="translate(317,307)"/>
<path d="M0 0 C2.0625 0.4375 2.0625 0.4375 4 1 C-0.97504047 4.24900602 -3.88225104 5.49940808 -10 5 C-10 4.67 -10 4.34 -10 4 C-9.36191406 3.79503906 -8.72382813 3.59007812 -8.06640625 3.37890625 C-7.24011719 3.10949219 -6.41382813 2.84007812 -5.5625 2.5625 C-4.73878906 2.29566406 -3.91507812 2.02882813 -3.06640625 1.75390625 C-1.03780412 1.17844506 -1.03780412 1.17844506 0 0 Z " fill="#460F62" transform="translate(364,317)"/>
<path d="M0 0 C0 3 0 3 -2 5.1875 C-2.66 5.785625 -3.32 6.38375 -4 7 C-4.99 6.67 -5.98 6.34 -7 6 C-2.25 1.125 -2.25 1.125 0 0 Z " fill="#E2147B" transform="translate(314,281)"/>
<path d="M0 0 C0.33 0 0.66 0 1 0 C1.28571429 7.42857143 1.28571429 7.42857143 -1 11 C-2.26264601 6.70700357 -1.62950412 4.12168689 0 0 Z " fill="#D9496B" transform="translate(214,240)"/>
<path d="M0 0 C1.98 0 3.96 0 6 0 C6.33 1.98 6.66 3.96 7 6 C6.34 6 5.68 6 5 6 C3.2856382 4.04072937 1.61594832 2.04119788 0 0 Z " fill="#EA5486" transform="translate(265,249)"/>
<path d="M0 0 C2 2 2 2 2.125 5.125 C2.08375 6.07375 2.0425 7.0225 2 8 C1.34 7.67 0.68 7.34 0 7 C0 6.34 0 5.68 0 5 C-1.32 4.34 -2.64 3.68 -4 3 C-3.34 2.67 -2.68 2.34 -2 2 C-1.34 2.33 -0.68 2.66 0 3 C0 2.01 0 1.02 0 0 Z " fill="#FA5682" transform="translate(283,236)"/>
<path d="M0 0 C3 1 3 1 5 4 C5 4.99 5 5.98 5 7 C2 6 2 6 0 3 C0 2.01 0 1.02 0 0 Z " fill="#3580CA" transform="translate(248,533)"/>
<path d="M0 0 C2.475 0.495 2.475 0.495 5 1 C5.33 2.32 5.66 3.64 6 5 C4.35 4.67 2.7 4.34 1 4 C0.67 2.68 0.34 1.36 0 0 Z " fill="#1B1F5B" transform="translate(347,325)"/>
<path d="M0 0 C3.63 0.33 7.26 0.66 11 1 C6.01222852 3.49388574 4.33016752 2.88836125 -1 2 C-0.67 1.34 -0.34 0.68 0 0 Z " fill="#4F155D" transform="translate(335,321)"/>
<path d="M0 0 C0.33 0.66 0.66 1.32 1 2 C0.01 3.485 0.01 3.485 -1 5 C-1.66 5 -2.32 5 -3 5 C-3.66 6.32 -4.32 7.64 -5 9 C-5.66 8.34 -6.32 7.68 -7 7 C-5.625 5.5 -5.625 5.5 -4 4 C-3.34 4 -2.68 4 -2 4 C-1.34 2.68 -0.68 1.36 0 0 Z " fill="#A71077" transform="translate(386,268)"/>
<path d="M0 0 C-1.98 1.32 -3.96 2.64 -6 4 C-6.66 3.67 -7.32 3.34 -8 3 C-8 2.34 -8 1.68 -8 1 C-4.93251126 -0.86240388 -3.40254489 -1.2151946 0 0 Z " fill="#233662" transform="translate(377,346)"/>
<path d="M0 0 C0.99 0.33 1.98 0.66 3 1 C1.02 3.31 -0.96 5.62 -3 8 C-3.33 7.01 -3.66 6.02 -4 5 C-2.0625 2.3125 -2.0625 2.3125 0 0 Z " fill="#1C2B37" transform="translate(395,342)"/>
<path d="M0 0 C0.33 0 0.66 0 1 0 C1.33 2.64 1.66 5.28 2 8 C0.68 7.67 -0.64 7.34 -2 7 C-1.34 4.69 -0.68 2.38 0 0 Z " fill="#2D81D8" transform="translate(353,561)"/>
<path d="M0 0 C0.66 0.33 1.32 0.66 2 1 C-0.31 3.31 -2.62 5.62 -5 8 C-5 5 -5 5 -2.5 2.3125 C-1.675 1.549375 -0.85 0.78625 0 0 Z " fill="#D61784" transform="translate(322,287)"/>
<path d="M0 0 C0.66 0.33 1.32 0.66 2 1 C1.34 3.97 0.68 6.94 0 10 C-0.33 10 -0.66 10 -1 10 C-2.23076923 4.58461538 -2.23076923 4.58461538 -1.0625 1.625 C-0.5365625 0.820625 -0.5365625 0.820625 0 0 Z " fill="#D01075" transform="translate(394,252)"/>
<path d="M0 0 C4.42857143 5.14285714 4.42857143 5.14285714 5 9 C2 8 2 8 0.8125 6.1875 C0 4 0 4 0 0 Z " fill="#D92D8B" transform="translate(385,232)"/>
<path d="" fill="#E26F7E" transform="translate(0,0)"/>
<path d="" fill="#E37286" transform="translate(0,0)"/>
<path d="" fill="#E6748D" transform="translate(0,0)"/>
</svg>
